<svg width="58" height="58" viewBox="0 0 58 58" fill="none" xmlns="http://www.w3.org/2000/svg">
<path opacity="0.9" d="M29 57C44.464 57 57 44.464 57 29C57 13.536 44.464 1 29 1C13.536 1 1 13.536 1 29C1 44.464 13.536 57 29 57Z" stroke="#E6DF9A" stroke-width="2"/>
<mask id="mask0_1_126" style="mask-type:luminance" maskUnits="userSpaceOnUse" x="1" y="1" width="56" height="56">
<path d="M29 56.0455C43.9368 56.0455 56.0455 43.9368 56.0455 29C56.0455 14.0632 43.9368 1.95455 29 1.95455C14.0632 1.95455 1.95454 14.0632 1.95454 29C1.95454 43.9368 14.0632 56.0455 29 56.0455Z" fill="white"/>
</mask>
<g mask="url(#mask0_1_126)">
<path d="M57.6364 0.363636H0.36364V57.6364H57.6364V0.363636Z" fill="url(#paint0_linear_1_126)"/>
<path opacity="0.4" d="M0.36364 36.6364C19.4545 37.4849 38.5455 37.4849 57.6364 36.6364V57.6364H0.36364V36.6364Z" fill="#155AB4"/>
<path opacity="0.25" d="M0.36364 40.4545C10.9697 38.3333 22.6364 38.7576 35.3636 41.7273C48.0909 44.697 55.5152 43.8485 57.6364 39.1818V57.6364H0.36364V40.4545Z" fill="#E6DF9A"/>
<path d="M0.36364 44.9091C15.2121 48.303 29 47.8788 41.7273 43.6364C54.4545 39.3939 59.7576 40.2424 57.6364 46.1818V57.6364H0.36364V44.9091Z" fill="#155AB4"/>
<g opacity="0.95">
<path d="M11.1818 54.4545C12.8788 43.8485 11.6061 32.3939 7.36363 20.0909C8.63636 19.6667 10.5455 25.8182 13.0909 38.5455C13.9394 47.0303 14.1515 52.3333 13.7273 54.4545H11.1818Z" fill="#231F20"/>
<path d="M7.36363 20.0909C0.575755 3.9697 -3.24243 1.42424 -4.09091 12.4545C-1.12122 9.90909 2.69697 12.4545 7.36363 20.0909Z" fill="#231F20"/>
<path d="M7.36364 20.0909C2.27273 9.06061 1.63636 3.12121 5.45455 2.27273C6.30303 7.36364 6.93939 13.303 7.36364 20.0909Z" fill="#231F20"/>
<path d="M7.36363 20.0909C12.0303 10.3333 15.6364 6.72727 18.1818 9.27273C15.2121 12.6667 11.6061 16.2727 7.36363 20.0909Z" fill="#231F20"/>
<path d="M7.36363 20.0909C15 16.697 18.3939 17.1212 17.5455 21.3636C14.1515 21.3636 10.7576 20.9394 7.36363 20.0909Z" fill="#231F20"/>
<path opacity="0.7" d="M4.81818 54.4545C6.09091 45.9697 5.24242 37.0606 2.27273 27.7273C3.12121 27.303 4.60606 31.9697 6.72727 41.7273C7.15152 48.0909 7.15152 52.3333 6.72727 54.4545H4.81818Z" fill="#231F20"/>
<path opacity="0.7" d="M2.27273 27.7273C-3.66666 17.9697 -5.78788 16.2727 -4.09091 22.6364L2.27273 27.7273Z" fill="#231F20"/>
</g>
<g opacity="0.95">
<path d="M50 55.8068C47.0303 43.928 47.4545 31.625 51.2727 18.8977C52.5455 19.322 51.4849 25.6856 48.0909 37.9886C47.2424 47.7462 46.8182 53.6856 46.8182 55.8068H50Z" fill="#231F20"/>
<path d="M51.2727 18.8977C48.7273 7.86742 44.9091 3.625 39.8182 6.17045C43.2121 10.4129 47.0303 14.6553 51.2727 18.8977Z" fill="#231F20"/>
<path d="M51.2727 18.8977C55.5152 7.01894 58.4848 4.04924 60.1818 9.98864C56.7879 13.3826 53.8182 16.3523 51.2727 18.8977Z" fill="#231F20"/>
<path d="M51.2727 18.8977C43.2121 17.625 40.0303 19.5341 41.7273 24.625C45.1212 22.0795 48.303 20.1705 51.2727 18.8977Z" fill="#231F20"/>
<path d="M51.2727 18.8977C58.0606 21.0189 60.1818 24.2008 57.6364 28.4432C50.8485 25.0492 48.7273 21.8674 51.2727 18.8977Z" fill="#231F20"/>
<path opacity="0.7" d="M55.0909 55.8068C53.3939 48.1705 53.8182 39.6856 56.3636 30.3523C57.2121 30.7765 56.5758 35.4432 54.4545 44.3523C54.0303 49.8674 53.8182 53.6856 53.8182 55.8068H55.0909Z" fill="#231F20"/>
</g>
<g opacity="0.5">
<path d="M22.6364 11.1818C23.4849 10.3333 24.3333 10.3333 25.1818 11.1818C26.0303 10.3333 26.8788 10.3333 27.7273 11.1818C26.8788 10.7576 26.0303 10.7576 25.1818 11.1818C24.3333 10.7576 23.4849 10.7576 22.6364 11.1818Z" fill="#231F20"/>
</g>
</g>
<g opacity="0.85">
<path d="M17.5455 37.9091H40.4545C37.0606 38.3333 33.2424 38.5455 29 38.5455C24.7576 38.5455 20.9394 38.3333 17.5455 37.9091Z" fill="url(#paint1_linear_1_126)"/>
<path d="M37.5909 39.5H20.4091C20.2334 39.5 20.0909 39.6425 20.0909 39.8182C20.0909 39.9939 20.2334 40.1364 20.4091 40.1364H37.5909C37.7666 40.1364 37.9091 39.9939 37.9091 39.8182C37.9091 39.6425 37.7666 39.5 37.5909 39.5Z" fill="url(#paint2_linear_1_126)"/>
<path d="M34.4727 41.0909H23.5273C23.3867 41.0909 23.2727 41.2049 23.2727 41.3455C23.2727 41.486 23.3867 41.6 23.5273 41.6H34.4727C34.6133 41.6 34.7273 41.486 34.7273 41.3455C34.7273 41.2049 34.6133 41.0909 34.4727 41.0909Z" fill="url(#paint3_linear_1_126)"/>
<path d="M26.2 42.3636H22.2545C22.114 42.3636 22 42.4776 22 42.6182C22 42.7588 22.114 42.8727 22.2545 42.8727H26.2C26.3406 42.8727 26.4545 42.7588 26.4545 42.6182C26.4545 42.4776 26.3406 42.3636 26.2 42.3636Z" fill="url(#paint4_linear_1_126)"/>
<path d="M37.0182 42.3636H31.8C31.6594 42.3636 31.5455 42.4776 31.5455 42.6182C31.5455 42.7588 31.6594 42.8727 31.8 42.8727H37.0182C37.1588 42.8727 37.2727 42.7588 37.2727 42.6182C37.2727 42.4776 37.1588 42.3636 37.0182 42.3636Z" fill="url(#paint5_linear_1_126)"/>
<path d="M32.5955 43.6364H25.4045C25.2815 43.6364 25.1818 43.7361 25.1818 43.8591C25.1818 43.9821 25.2815 44.0818 25.4045 44.0818H32.5955C32.7185 44.0818 32.8182 43.9821 32.8182 43.8591C32.8182 43.7361 32.7185 43.6364 32.5955 43.6364Z" fill="url(#paint6_linear_1_126)"/>
<path d="M26.9 44.9091H24.1C23.9946 44.9091 23.9091 44.9946 23.9091 45.1C23.9091 45.2054 23.9946 45.2909 24.1 45.2909H26.9C27.0054 45.2909 27.0909 45.2054 27.0909 45.1C27.0909 44.9946 27.0054 44.9091 26.9 44.9091Z" fill="url(#paint7_linear_1_126)"/>
<path d="M34.5364 44.9091H29.8273C29.7218 44.9091 29.6364 44.9946 29.6364 45.1C29.6364 45.2054 29.7218 45.2909 29.8273 45.2909H34.5364C34.6418 45.2909 34.7273 45.2054 34.7273 45.1C34.7273 44.9946 34.6418 44.9091 34.5364 44.9091Z" fill="url(#paint8_linear_1_126)"/>
<path opacity="0.6" d="M31.9909 46.5H26.6455C26.54 46.5 26.4545 46.5855 26.4545 46.6909C26.4545 46.7963 26.54 46.8818 26.6455 46.8818H31.9909C32.0963 46.8818 32.1818 46.7963 32.1818 46.6909C32.1818 46.5855 32.0963 46.5 31.9909 46.5Z" fill="url(#paint9_linear_1_126)"/>
<path opacity="0.4" d="M30.1136 48.0909H27.8864C27.7985 48.0909 27.7273 48.1621 27.7273 48.25C27.7273 48.3379 27.7985 48.4091 27.8864 48.4091H30.1136C30.2015 48.4091 30.2727 48.3379 30.2727 48.25C30.2727 48.1621 30.2015 48.0909 30.1136 48.0909Z" fill="url(#paint10_linear_1_126)"/>
</g>
<path d="M16.2727 37.2727C16.2727 33.8972 17.6136 30.66 20.0005 28.2732C22.3873 25.8864 25.6245 24.5455 29 24.5455C32.3755 24.5455 35.6127 25.8864 37.9995 28.2732C40.3864 30.66 41.7273 33.8972 41.7273 37.2727H16.2727Z" fill="url(#paint11_linear_1_126)"/>
<defs>
<linearGradient id="paint0_linear_1_126" x1="0.36364" y1="0.363636" x2="0.36364" y2="57.6364" gradientUnits="userSpaceOnUse">
<stop stop-color="#8B263E"/>
<stop offset="0.4" stop-color="#D3524A"/>
<stop offset="0.75" stop-color="#E27D50"/>
<stop offset="1" stop-color="#F4C463"/>
</linearGradient>
<linearGradient id="paint1_linear_1_126" x1="17.5455" y1="37.9091" x2="17.5455" y2="38.5455" gradientUnits="userSpaceOnUse">
<stop stop-color="#FFFDF0"/>
<stop offset="1" stop-color="#FFD54F"/>
</linearGradient>
<linearGradient id="paint2_linear_1_126" x1="20.0909" y1="39.5" x2="20.0909" y2="40.1364" gradientUnits="userSpaceOnUse">
<stop stop-color="#FFFDF0"/>
<stop offset="1" stop-color="#FFD54F"/>
</linearGradient>
<linearGradient id="paint3_linear_1_126" x1="23.2727" y1="41.0909" x2="23.2727" y2="41.6" gradientUnits="userSpaceOnUse">
<stop stop-color="#FFFDF0"/>
<stop offset="1" stop-color="#FFD54F"/>
</linearGradient>
<linearGradient id="paint4_linear_1_126" x1="22" y1="42.3636" x2="22" y2="42.8727" gradientUnits="userSpaceOnUse">
<stop stop-color="#FFFDF0"/>
<stop offset="1" stop-color="#FFD54F"/>
</linearGradient>
<linearGradient id="paint5_linear_1_126" x1="31.5455" y1="42.3636" x2="31.5455" y2="42.8727" gradientUnits="userSpaceOnUse">
<stop stop-color="#FFFDF0"/>
<stop offset="1" stop-color="#FFD54F"/>
</linearGradient>
<linearGradient id="paint6_linear_1_126" x1="25.1818" y1="43.6364" x2="25.1818" y2="44.0818" gradientUnits="userSpaceOnUse">
<stop stop-color="#FFFDF0"/>
<stop offset="1" stop-color="#FFD54F"/>
</linearGradient>
<linearGradient id="paint7_linear_1_126" x1="23.9091" y1="44.9091" x2="23.9091" y2="45.2909" gradientUnits="userSpaceOnUse">
<stop stop-color="#FFFDF0"/>
<stop offset="1" stop-color="#FFD54F"/>
</linearGradient>
<linearGradient id="paint8_linear_1_126" x1="29.6364" y1="44.9091" x2="29.6364" y2="45.2909" gradientUnits="userSpaceOnUse">
<stop stop-color="#FFFDF0"/>
<stop offset="1" stop-color="#FFD54F"/>
</linearGradient>
<linearGradient id="paint9_linear_1_126" x1="26.4545" y1="46.5" x2="26.4545" y2="46.8818" gradientUnits="userSpaceOnUse">
<stop stop-color="#FFFDF0"/>
<stop offset="1" stop-color="#FFD54F"/>
</linearGradient>
<linearGradient id="paint10_linear_1_126" x1="27.7273" y1="48.0909" x2="27.7273" y2="48.4091" gradientUnits="userSpaceOnUse">
<stop stop-color="#FFFDF0"/>
<stop offset="1" stop-color="#FFD54F"/>
</linearGradient>
<linearGradient id="paint11_linear_1_126" x1="16.2727" y1="24.5455" x2="16.2727" y2="37.2727" gradientUnits="userSpaceOnUse">
<stop stop-color="#FFFDF0"/>
<stop offset="1" stop-color="#FFD54F"/>
</linearGradient>
</defs>
</svg>
