<svg width="90" height="90" viewBox="0 0 90 90" fill="none" xmlns="http://www.w3.org/2000/svg">
<path opacity="0.9" d="M45 89C69.3005 89 89 69.3005 89 45C89 20.6995 69.3005 1 45 1C20.6995 1 1 20.6995 1 45C1 69.3005 20.6995 89 45 89Z" stroke="#E6DF9A" stroke-width="2"/>
<mask id="mask0_1_125" style="mask-type:luminance" maskUnits="userSpaceOnUse" x="2" y="2" width="86" height="86">
<path d="M45 87.5C68.4721 87.5 87.5 68.4721 87.5 45C87.5 21.5279 68.4721 2.5 45 2.5C21.5279 2.5 2.5 21.5279 2.5 45C2.5 68.4721 21.5279 87.5 45 87.5Z" fill="white"/>
</mask>
<g mask="url(#mask0_1_125)">
<path d="M90 0H0V90H90V0Z" fill="url(#paint0_linear_1_125)"/>
<path opacity="0.4" d="M0 57C30 58.3333 60 58.3333 90 57V90H0V57Z" fill="#155AB4"/>
<path opacity="0.25" d="M0 63C16.6667 59.6667 35 60.3333 55 65C75 69.6667 86.6667 68.3333 90 61V90H0V63Z" fill="#E6DF9A"/>
<path d="M0 70C23.3333 75.3333 45 74.6667 65 68C85 61.3333 93.3333 62.6667 90 72V90H0V70Z" fill="#155AB4"/>
<g opacity="0.95">
<path d="M17 85C19.6667 68.3333 17.6667 50.3333 11 31C13 30.3333 16 40 20 60C21.3333 73.3333 21.6667 81.6667 21 85H17Z" fill="#231F20"/>
<path d="M11 31C0.333333 5.66667 -5.66667 1.66667 -7 19C-2.33333 15 3.66667 19 11 31Z" fill="#231F20"/>
<path d="M11 31C3 13.6667 2 4.33333 8 3C9.33334 11 10.3333 20.3333 11 31Z" fill="#231F20"/>
<path d="M11 31C18.3333 15.6667 24 10 28 14C23.3333 19.3333 17.6667 25 11 31Z" fill="#231F20"/>
<path d="M11 31C23 25.6667 28.3333 26.3333 27 33C21.6667 33 16.3333 32.3333 11 31Z" fill="#231F20"/>
<path opacity="0.7" d="M7 85C9 71.6667 7.66667 57.6667 3 43C4.33333 42.3333 6.66667 49.6667 10 65C10.6667 75 10.6667 81.6667 10 85H7Z" fill="#231F20"/>
<path opacity="0.7" d="M3 43C-6.33333 27.6667 -9.66666 25 -7 35L3 43Z" fill="#231F20"/>
</g>
<g opacity="0.95">
<path d="M78 87.125C73.3333 68.4583 74 49.125 80 29.125C82 29.7917 80.3333 39.7917 75 59.125C73.6667 74.4583 73 83.7917 73 87.125H78Z" fill="#231F20"/>
<path d="M80 29.125C76 11.7917 70 5.125 62 9.125C67.3333 15.7917 73.3333 22.4583 80 29.125Z" fill="#231F20"/>
<path d="M80 29.125C86.6667 10.4583 91.3333 5.79167 94 15.125C88.6667 20.4583 84 25.125 80 29.125Z" fill="#231F20"/>
<path d="M80 29.125C67.3333 27.125 62.3333 30.125 65 38.125C70.3333 34.125 75.3333 31.125 80 29.125Z" fill="#231F20"/>
<path d="M80 29.125C90.6667 32.4583 94 37.4583 90 44.125C79.3333 38.7917 76 33.7917 80 29.125Z" fill="#231F20"/>
<path opacity="0.7" d="M86 87.125C83.3333 75.125 84 61.7917 88 47.125C89.3333 47.7917 88.3333 55.125 85 69.125C84.3333 77.7917 84 83.7917 84 87.125H86Z" fill="#231F20"/>
</g>
<g opacity="0.5">
<path d="M35 17C36.3333 15.6667 37.6667 15.6667 39 17C40.3333 15.6667 41.6667 15.6667 43 17C41.6667 16.3333 40.3333 16.3333 39 17C37.6667 16.3333 36.3333 16.3333 35 17Z" fill="#231F20"/>
</g>
</g>
<path d="M28.377 33.7344V31.1055L30.0645 31.0469C30.1686 31.0469 30.2663 31.0534 30.3574 31.0664C30.4486 31.0794 30.5404 31.1042 30.6328 31.1406C30.7266 31.1758 30.806 31.222 30.8711 31.2793C30.9375 31.3353 30.9915 31.4102 31.0332 31.5039C31.0749 31.5977 31.0957 31.7057 31.0957 31.8281C31.0957 31.9909 31.0599 32.123 30.9883 32.2246C30.9167 32.3249 30.8092 32.4141 30.666 32.4922C30.834 32.5391 30.9616 32.6204 31.0488 32.7363C31.1374 32.8509 31.1816 32.9961 31.1816 33.1719C31.1816 33.3021 31.1569 33.4193 31.1074 33.5234C31.0579 33.6263 30.9941 33.7103 30.916 33.7754C30.8379 33.8405 30.7461 33.8945 30.6406 33.9375C30.5352 33.9805 30.4303 34.0104 30.3262 34.0273C30.2233 34.0456 30.1178 34.0547 30.0098 34.0547C29.9473 34.0547 29.8529 34.0534 29.7266 34.0508C29.6016 34.0482 29.5072 34.0469 29.4434 34.0469C29.0814 34.0469 28.7493 34.0521 28.4473 34.0625C28.4043 33.9935 28.3809 33.8841 28.377 33.7344ZM29.498 31.7578C29.498 31.8164 29.5 31.9036 29.5039 32.0195C29.5078 32.1354 29.5098 32.2227 29.5098 32.2812C29.5098 32.306 29.5254 32.3203 29.5566 32.3242C29.5749 32.3216 29.6061 32.3177 29.6504 32.3125C29.696 32.306 29.7318 32.3008 29.7578 32.2969C29.7839 32.293 29.8151 32.2839 29.8516 32.2695C29.8893 32.2539 29.9186 32.2357 29.9395 32.2148C29.9603 32.194 29.9785 32.1641 29.9941 32.125C30.0098 32.0846 30.0176 32.0378 30.0176 31.9844C30.0176 31.7865 29.8809 31.6875 29.6074 31.6875C29.5527 31.6966 29.5208 31.7057 29.5117 31.7148C29.5026 31.7253 29.498 31.7396 29.498 31.7578ZM29.5332 33.2461C29.5332 33.3424 29.5384 33.3906 29.5488 33.3906H29.6113C29.6621 33.3906 29.7057 33.3893 29.7422 33.3867C29.7799 33.3828 29.8203 33.3743 29.8633 33.3613C29.9062 33.3483 29.9408 33.3307 29.9668 33.3086C29.9928 33.2852 30.015 33.2526 30.0332 33.2109C30.0514 33.1693 30.0605 33.1198 30.0605 33.0625C30.0605 33.0299 30.0573 33 30.0508 32.9727C30.0443 32.9453 30.0339 32.9219 30.0195 32.9023C30.0052 32.8828 29.9909 32.8659 29.9766 32.8516C29.9635 32.8372 29.944 32.8255 29.918 32.8164C29.8932 32.806 29.8724 32.7982 29.8555 32.793C29.8398 32.7865 29.8158 32.7812 29.7832 32.7773C29.7507 32.7734 29.7272 32.7708 29.7129 32.7695C29.6986 32.7682 29.6738 32.7669 29.6387 32.7656C29.6035 32.763 29.5814 32.7617 29.5723 32.7617V32.8359C29.571 32.8503 29.5638 32.8984 29.5508 32.9805C29.5391 33.0625 29.5332 33.1276 29.5332 33.1758V33.2461ZM31.4434 33.9297V33.8555C31.4434 33.6328 31.446 33.304 31.4512 32.8691C31.4564 32.4342 31.459 32.1055 31.459 31.8828V31.0742H33.7324V31.7148C33.7324 31.7188 33.7324 31.7285 33.7324 31.7441C33.7324 31.7598 33.7324 31.7702 33.7324 31.7754C33.7324 31.7806 33.7318 31.7904 33.7305 31.8047C33.7292 31.8177 33.7266 31.8268 33.7227 31.832C33.7201 31.8372 33.7155 31.8451 33.709 31.8555C33.7038 31.8646 33.6973 31.8711 33.6895 31.875C33.6816 31.8789 33.6712 31.8828 33.6582 31.8867C33.6452 31.8893 33.6309 31.8906 33.6152 31.8906H33.5605C33.2233 31.8906 32.916 31.8854 32.6387 31.875C32.6361 31.8958 32.6315 31.9284 32.625 31.9727C32.6198 32.0156 32.6152 32.054 32.6113 32.0879C32.6087 32.1204 32.6074 32.1523 32.6074 32.1836H33.5371C33.5762 32.1836 33.6022 32.1888 33.6152 32.1992C33.6283 32.2096 33.6348 32.2266 33.6348 32.25C33.6348 32.2565 33.6341 32.2669 33.6328 32.2812C33.6315 32.2956 33.6309 32.306 33.6309 32.3125C33.6309 32.375 33.6328 32.4674 33.6367 32.5898C33.6406 32.7122 33.6426 32.8047 33.6426 32.8672C33.6387 32.8932 33.6283 32.9062 33.6113 32.9062C33.6035 32.9062 33.597 32.9036 33.5918 32.8984C33.1803 32.9193 32.8757 32.9297 32.6777 32.9297H32.627V33.2109C32.7428 33.2109 32.9102 33.2057 33.1289 33.1953C33.349 33.1849 33.5137 33.1797 33.623 33.1797C33.709 33.1797 33.7585 33.1979 33.7715 33.2344V33.3828C33.7715 33.4453 33.7728 33.5378 33.7754 33.6602C33.778 33.7826 33.7793 33.875 33.7793 33.9375C33.7793 34.0026 33.7533 34.0352 33.7012 34.0352C33.6335 34.0352 33.5293 34.0345 33.3887 34.0332C33.248 34.0319 33.1413 34.0312 33.0684 34.0312C32.8809 34.0312 32.6126 34.0358 32.2637 34.0449C31.9147 34.0553 31.6621 34.0612 31.5059 34.0625L31.4512 34C31.446 33.9635 31.4434 33.9401 31.4434 33.9297ZM33.7207 34C33.8014 33.7018 33.8906 33.3991 33.9883 33.0918C34.0859 32.7845 34.207 32.4173 34.3516 31.9902C34.4974 31.5618 34.597 31.2656 34.6504 31.1016C34.666 31.0755 34.6764 31.0599 34.6816 31.0547H35.0098C35.0866 31.0547 35.1999 31.0534 35.3496 31.0508C35.4993 31.0482 35.6126 31.0469 35.6895 31.0469H36.0176C36.0371 31.0469 36.0534 31.0475 36.0664 31.0488C36.0794 31.0488 36.0951 31.0501 36.1133 31.0527C36.1315 31.0553 36.1458 31.0592 36.1562 31.0645C36.168 31.0697 36.1777 31.0775 36.1855 31.0879C36.1934 31.0983 36.1973 31.1107 36.1973 31.125L37.0977 33.9785C37.0977 34.0046 37.0879 34.0221 37.0684 34.0312C37.0501 34.0417 37.015 34.0469 36.9629 34.0469H36.7832C36.7311 34.0469 36.6536 34.0475 36.5508 34.0488C36.4479 34.0501 36.3704 34.0508 36.3184 34.0508C36.3027 34.0508 36.2708 34.0514 36.2227 34.0527C36.1758 34.0553 36.1361 34.056 36.1035 34.0547C36.071 34.0547 36.0345 34.0527 35.9941 34.0488C35.9551 34.0462 35.9232 34.0391 35.8984 34.0273C35.875 34.0169 35.86 34.0026 35.8535 33.9844V33.8555C35.8405 33.7904 35.8177 33.7305 35.7852 33.6758C35.7526 33.6211 35.7181 33.5938 35.6816 33.5938H35.0098L34.9082 34.0078C34.8939 34.0391 34.821 34.0547 34.6895 34.0547H34.5332C34.4772 34.0547 34.3939 34.0566 34.2832 34.0605C34.1725 34.0645 34.0892 34.0664 34.0332 34.0664H33.9785C33.9577 34.0664 33.9245 34.0671 33.8789 34.0684C33.8346 34.0697 33.8001 34.0703 33.7754 34.0703C33.765 34.0599 33.7467 34.0365 33.7207 34ZM35.0762 32.8145L35.1309 32.9062H35.2598C35.3639 32.9062 35.459 32.9004 35.5449 32.8887C35.6322 32.8757 35.6758 32.8555 35.6758 32.8281L35.4238 31.7031C35.4004 31.7031 35.3685 31.7474 35.3281 31.8359C35.2891 31.9245 35.2572 32.0247 35.2324 32.1367L35.0762 32.8145ZM39.998 32.9531C39.9759 33.1484 39.9245 33.3216 39.8438 33.4727C39.763 33.6224 39.6595 33.7448 39.5332 33.8398C39.4069 33.9336 39.263 34.0046 39.1016 34.0527C38.9414 34.1009 38.7663 34.125 38.5762 34.125C38.3991 34.125 38.2376 34.1055 38.0918 34.0664C37.946 34.0286 37.8229 33.9779 37.7227 33.9141C37.6224 33.8503 37.5339 33.7728 37.457 33.6816C37.3802 33.5892 37.319 33.4948 37.2734 33.3984C37.2279 33.3008 37.1908 33.1947 37.1621 33.0801C37.1348 32.9642 37.1159 32.8568 37.1055 32.7578C37.0964 32.6576 37.0918 32.5534 37.0918 32.4453V32.2734C37.1048 32.0833 37.1491 31.9128 37.2246 31.7617C37.3001 31.6094 37.3919 31.487 37.5 31.3945C37.6081 31.3008 37.7318 31.2233 37.8711 31.1621C38.0104 31.0996 38.1458 31.0566 38.2773 31.0332C38.4089 31.0085 38.5397 30.9961 38.6699 30.9961C38.8796 30.9961 39.0645 31.0215 39.2246 31.0723C39.3861 31.1217 39.5176 31.1921 39.6191 31.2832C39.7207 31.3743 39.8001 31.4792 39.8574 31.5977C39.9147 31.7148 39.9512 31.8464 39.9668 31.9922V32.1797C39.9668 32.2214 39.8236 32.2422 39.5371 32.2422C39.4694 32.2422 39.375 32.2409 39.2539 32.2383C39.1341 32.2357 39.0553 32.2344 39.0176 32.2344C39.0111 32.2344 39.0013 32.235 38.9883 32.2363C38.9753 32.2376 38.9655 32.2383 38.959 32.2383C38.9251 32.2383 38.8991 32.2246 38.8809 32.1973C38.8639 32.1686 38.8522 32.1341 38.8457 32.0938C38.8405 32.0534 38.8333 32.013 38.8242 31.9727C38.8164 31.9323 38.7988 31.8984 38.7715 31.8711C38.7454 31.8424 38.709 31.8281 38.6621 31.8281C38.6152 31.8281 38.5742 31.8359 38.5391 31.8516C38.5039 31.8672 38.4759 31.8919 38.4551 31.9258C38.4342 31.9583 38.4167 31.9915 38.4023 32.0254C38.3893 32.0592 38.3796 32.1035 38.373 32.1582C38.3678 32.2116 38.3639 32.2572 38.3613 32.2949C38.36 32.3314 38.3587 32.3809 38.3574 32.4434C38.3561 32.5046 38.3548 32.5495 38.3535 32.5781C38.3535 32.5938 38.3522 32.6224 38.3496 32.6641C38.347 32.7057 38.3457 32.7396 38.3457 32.7656C38.3457 33.0898 38.4316 33.2565 38.6035 33.2656C38.6504 33.2656 38.6888 33.2487 38.7188 33.2148C38.7487 33.181 38.7689 33.1432 38.7793 33.1016C38.791 33.0599 38.804 33.0163 38.8184 32.9707C38.8327 32.9238 38.8483 32.8919 38.8652 32.875H39.9277C39.9707 32.8789 39.9941 32.9049 39.998 32.9531ZM40.7559 34.0508C40.7194 34.0508 40.6771 34.0514 40.6289 34.0527C40.5807 34.0553 40.5436 34.0573 40.5176 34.0586C40.4915 34.0599 40.4616 34.0592 40.4277 34.0566C40.3952 34.0553 40.3704 34.0508 40.3535 34.043C40.3366 34.0365 40.3184 34.026 40.2988 34.0117C40.2806 33.9974 40.2669 33.9779 40.2578 33.9531C40.25 33.9284 40.2428 33.8978 40.2363 33.8613C40.2311 33.8249 40.2285 33.7812 40.2285 33.7305C40.2285 33.4492 40.2337 33.0658 40.2441 32.5801C40.2546 32.0931 40.2598 31.7357 40.2598 31.5078C40.2598 31.2266 40.2741 31.0781 40.3027 31.0625H41.0293C41.1582 31.0625 41.2539 31.0703 41.3164 31.0859C41.3802 31.1003 41.4225 31.1224 41.4434 31.1523C41.4642 31.1823 41.4746 31.2279 41.4746 31.2891C41.4746 31.3073 41.4733 31.3431 41.4707 31.3965C41.4681 31.4486 41.4668 31.4922 41.4668 31.5273V31.6172C41.4668 31.6589 41.4648 31.7214 41.4609 31.8047C41.457 31.888 41.4551 31.9505 41.4551 31.9922V32.0312C41.4577 32.0391 41.459 32.0495 41.459 32.0625H41.5371C41.5592 32.0625 41.5931 32.0632 41.6387 32.0645C41.6842 32.0658 41.7181 32.0664 41.7402 32.0664C41.8001 32.0664 41.8444 32.0625 41.873 32.0547V31.2422C41.873 31.1771 41.8763 31.1309 41.8828 31.1035C41.8893 31.0749 41.8984 31.0573 41.9102 31.0508C41.9219 31.043 41.9434 31.0391 41.9746 31.0391C41.9915 31.0391 42.0189 31.0397 42.0566 31.041C42.0944 31.0423 42.1217 31.043 42.1387 31.043L42.2832 31.0371C42.3809 31.0332 42.4681 31.0312 42.5449 31.0312C42.8991 31.0312 43.0762 31.0703 43.0762 31.1484C43.0762 31.1693 43.0768 31.1992 43.0781 31.2383C43.0794 31.2773 43.0801 31.3073 43.0801 31.3281C43.0801 31.3737 43.0794 31.4401 43.0781 31.5273C43.0768 31.6146 43.0762 31.681 43.0762 31.7266C43.0762 31.862 43.0781 32.0638 43.082 32.332C43.0859 32.6003 43.0879 32.8021 43.0879 32.9375C43.0879 32.9492 43.0872 32.9642 43.0859 32.9824C43.0846 32.9993 43.084 33.0104 43.084 33.0156V33.1094C43.084 33.1927 43.0853 33.2552 43.0879 33.2969V33.3398C43.0853 33.3451 43.084 33.3529 43.084 33.3633C43.084 33.4323 43.0853 33.5371 43.0879 33.6777C43.0905 33.8184 43.0918 33.9232 43.0918 33.9922C43.0827 34.0391 42.9577 34.0625 42.7168 34.0625H41.9043L41.8457 33.9805V33.8516C41.8457 33.7643 41.8464 33.6354 41.8477 33.4648C41.849 33.2943 41.8496 33.1654 41.8496 33.0781C41.8496 33.0482 41.8457 33.028 41.8379 33.0176C41.8314 33.0059 41.8171 33 41.7949 33H41.7246C41.6361 33 41.5553 33.0052 41.4824 33.0156C41.4824 33.1237 41.4811 33.2865 41.4785 33.5039C41.4759 33.7201 41.4746 33.8828 41.4746 33.9922C41.459 34.0312 41.2962 34.0508 40.9863 34.0508H40.7559ZM47.5176 34.0078C47.4889 34.0365 47.4284 34.0534 47.3359 34.0586C47.2448 34.0638 47.1322 34.0625 46.998 34.0547C46.8639 34.0469 46.7923 34.043 46.7832 34.043C46.6947 34.043 46.6309 34.0417 46.5918 34.0391H46.3965C46.3678 34.0299 46.3438 33.9876 46.3242 33.9121C46.3047 33.8353 46.2852 33.7259 46.2656 33.584C46.2474 33.4408 46.2376 33.3646 46.2363 33.3555C46.2311 33.2266 46.2103 33.1419 46.1738 33.1016C46.1374 33.0599 46.071 33.0391 45.9746 33.0391H45.8887V33.9922C45.8861 34.0078 45.8724 34.0208 45.8477 34.0312C45.8229 34.0417 45.7871 34.0482 45.7402 34.0508C45.6947 34.0547 45.6536 34.0566 45.6172 34.0566C45.582 34.0579 45.5352 34.0579 45.4766 34.0566C45.418 34.0553 45.3822 34.0547 45.3691 34.0547H45.0879C44.929 34.0547 44.8092 34.056 44.7285 34.0586C44.7103 34.0508 44.6921 34.0417 44.6738 34.0312V31.1172C44.6738 31.0807 44.7259 31.0625 44.8301 31.0625H46.5332C46.8288 31.0703 47.0534 31.1406 47.207 31.2734C47.362 31.4062 47.4395 31.5938 47.4395 31.8359C47.4395 32.151 47.2806 32.3815 46.9629 32.5273C47.0215 32.5456 47.0742 32.571 47.1211 32.6035C47.168 32.6361 47.207 32.6712 47.2383 32.709C47.2695 32.7454 47.2969 32.7897 47.3203 32.8418C47.3438 32.8939 47.362 32.9427 47.375 32.9883C47.388 33.0339 47.3991 33.0879 47.4082 33.1504C47.4186 33.2129 47.4258 33.2669 47.4297 33.3125C47.4336 33.3581 47.4382 33.4128 47.4434 33.4766C47.4499 33.5391 47.4551 33.5885 47.459 33.625V33.7969C47.4629 33.8177 47.4746 33.847 47.4941 33.8848C47.515 33.9225 47.528 33.9505 47.5332 33.9688C47.5332 33.9948 47.528 34.0078 47.5176 34.0078ZM45.877 31.8906C45.877 31.9688 45.8776 32.0267 45.8789 32.0645C45.8802 32.1022 45.8874 32.1517 45.9004 32.2129C45.9134 32.2741 45.9329 32.3177 45.959 32.3438C46.0137 32.3438 46.0651 32.3379 46.1133 32.3262C46.1628 32.3145 46.2103 32.2956 46.2559 32.2695C46.3014 32.2435 46.3372 32.2051 46.3633 32.1543C46.3906 32.1022 46.4043 32.0404 46.4043 31.9688C46.4043 31.9284 46.3971 31.8932 46.3828 31.8633C46.3685 31.832 46.3477 31.8073 46.3203 31.7891C46.293 31.7708 46.2656 31.7565 46.2383 31.7461C46.2122 31.7344 46.1797 31.7266 46.1406 31.7227C46.1029 31.7174 46.0729 31.7142 46.0508 31.7129C46.0286 31.7116 46.002 31.7109 45.9707 31.7109H45.9238C45.9043 31.7201 45.8913 31.7383 45.8848 31.7656C45.8796 31.793 45.877 31.8346 45.877 31.8906ZM47.7129 33.9297V33.8555C47.7129 33.6328 47.7155 33.304 47.7207 32.8691C47.7259 32.4342 47.7285 32.1055 47.7285 31.8828V31.0742H50.002V31.7148C50.002 31.7188 50.002 31.7285 50.002 31.7441C50.002 31.7598 50.002 31.7702 50.002 31.7754C50.002 31.7806 50.0013 31.7904 50 31.8047C49.9987 31.8177 49.9961 31.8268 49.9922 31.832C49.9896 31.8372 49.985 31.8451 49.9785 31.8555C49.9733 31.8646 49.9668 31.8711 49.959 31.875C49.9512 31.8789 49.9408 31.8828 49.9277 31.8867C49.9147 31.8893 49.9004 31.8906 49.8848 31.8906H49.8301C49.4928 31.8906 49.1855 31.8854 48.9082 31.875C48.9056 31.8958 48.901 31.9284 48.8945 31.9727C48.8893 32.0156 48.8848 32.054 48.8809 32.0879C48.8783 32.1204 48.877 32.1523 48.877 32.1836H49.8066C49.8457 32.1836 49.8717 32.1888 49.8848 32.1992C49.8978 32.2096 49.9043 32.2266 49.9043 32.25C49.9043 32.2565 49.9036 32.2669 49.9023 32.2812C49.901 32.2956 49.9004 32.306 49.9004 32.3125C49.9004 32.375 49.9023 32.4674 49.9062 32.5898C49.9102 32.7122 49.9121 32.8047 49.9121 32.8672C49.9082 32.8932 49.8978 32.9062 49.8809 32.9062C49.873 32.9062 49.8665 32.9036 49.8613 32.8984C49.4499 32.9193 49.1452 32.9297 48.9473 32.9297H48.8965V33.2109C49.0124 33.2109 49.1797 33.2057 49.3984 33.1953C49.6185 33.1849 49.7832 33.1797 49.8926 33.1797C49.9785 33.1797 50.028 33.1979 50.041 33.2344V33.3828C50.041 33.4453 50.0423 33.5378 50.0449 33.6602C50.0475 33.7826 50.0488 33.875 50.0488 33.9375C50.0488 34.0026 50.0228 34.0352 49.9707 34.0352C49.903 34.0352 49.7988 34.0345 49.6582 34.0332C49.5176 34.0319 49.4108 34.0312 49.3379 34.0312C49.1504 34.0312 48.8822 34.0358 48.5332 34.0449C48.1842 34.0553 47.9316 34.0612 47.7754 34.0625L47.7207 34C47.7155 33.9635 47.7129 33.9401 47.7129 33.9297ZM51.5059 34.1172C51.3522 34.1107 51.2142 34.097 51.0918 34.0762C50.9694 34.0566 50.8509 34.0247 50.7363 33.9805C50.623 33.9349 50.5273 33.8783 50.4492 33.8105C50.3724 33.7415 50.3079 33.6536 50.2559 33.5469C50.2051 33.4401 50.1738 33.3164 50.1621 33.1758C50.1621 33.151 50.1751 33.1367 50.2012 33.1328C50.209 33.1354 50.222 33.1367 50.2402 33.1367C50.3483 33.1367 50.5124 33.1341 50.7324 33.1289C50.9525 33.1237 51.1165 33.1211 51.2246 33.1211C51.252 33.1211 51.2734 33.1302 51.2891 33.1484C51.3047 33.1654 51.3171 33.1868 51.3262 33.2129C51.3366 33.2376 51.3483 33.263 51.3613 33.2891C51.3757 33.3138 51.3991 33.3353 51.4316 33.3535C51.4655 33.3704 51.5085 33.3789 51.5605 33.3789C51.6243 33.3789 51.6803 33.3613 51.7285 33.3262C51.778 33.2897 51.8027 33.2409 51.8027 33.1797C51.8027 33.1393 51.7819 33.1022 51.7402 33.0684C51.6986 33.0345 51.6432 33.0072 51.5742 32.9863C51.5065 32.9642 51.4414 32.946 51.3789 32.9316C51.3177 32.916 51.2546 32.903 51.1895 32.8926C51.1243 32.8809 51.0866 32.8737 51.0762 32.8711C50.7598 32.7852 50.5319 32.6784 50.3926 32.5508C50.2546 32.4232 50.1855 32.2487 50.1855 32.0273C50.1855 31.8711 50.2142 31.7311 50.2715 31.6074C50.3288 31.4824 50.4036 31.3809 50.4961 31.3027C50.5885 31.2233 50.6979 31.1576 50.8242 31.1055C50.9505 31.0521 51.0781 31.015 51.207 30.9941C51.3359 30.972 51.4694 30.9609 51.6074 30.9609C51.9733 30.9609 52.265 31.0286 52.4824 31.1641C52.5618 31.2435 52.6198 31.304 52.6562 31.3457C52.694 31.3861 52.7298 31.4336 52.7637 31.4883C52.7988 31.543 52.8229 31.597 52.8359 31.6504C52.8503 31.7025 52.86 31.7669 52.8652 31.8438L52.7949 31.9141C52.528 31.9245 52.2285 31.9297 51.8965 31.9297C51.8548 31.9297 51.821 31.9251 51.7949 31.916C51.7702 31.9069 51.7533 31.8952 51.7441 31.8809C51.7363 31.8665 51.7279 31.8516 51.7188 31.8359C51.7109 31.8203 51.7031 31.8053 51.6953 31.791C51.6888 31.7767 51.6738 31.765 51.6504 31.7559C51.6283 31.7467 51.5983 31.7422 51.5605 31.7422C51.5501 31.7422 51.5332 31.7441 51.5098 31.748C51.4876 31.752 51.4609 31.7585 51.4297 31.7676C51.3997 31.7754 51.3737 31.7884 51.3516 31.8066C51.3294 31.8236 51.3184 31.8438 51.3184 31.8672C51.3184 31.8958 51.3327 31.9219 51.3613 31.9453C51.3913 31.9688 51.4225 31.9857 51.4551 31.9961C51.4876 32.0065 51.528 32.0182 51.5762 32.0312C51.6243 32.043 51.6543 32.0508 51.666 32.0547C51.9499 32.1263 52.1191 32.1706 52.1738 32.1875C52.459 32.2773 52.6608 32.3952 52.7793 32.541C52.8887 32.6764 52.9434 32.8464 52.9434 33.0508C52.9434 33.1745 52.9271 33.2871 52.8945 33.3887C52.8633 33.4902 52.8216 33.5762 52.7695 33.6465C52.7174 33.7168 52.6523 33.7793 52.5742 33.834C52.4961 33.8887 52.4167 33.9323 52.3359 33.9648C52.2565 33.9974 52.166 34.0247 52.0645 34.0469C51.9629 34.069 51.8691 34.0846 51.7832 34.0938C51.6986 34.1042 51.6061 34.112 51.5059 34.1172ZM53.0293 32.5312V32.3164C53.0423 32.1341 53.082 31.9681 53.1484 31.8184C53.2148 31.6673 53.2988 31.5404 53.4004 31.4375C53.5033 31.3346 53.6217 31.248 53.7559 31.1777C53.89 31.1061 54.0299 31.054 54.1758 31.0215C54.3229 30.9889 54.4746 30.9727 54.6309 30.9727C54.7168 30.9727 54.806 30.9798 54.8984 30.9941C54.9922 31.0085 55.0911 31.0312 55.1953 31.0625C55.2995 31.0938 55.3991 31.14 55.4941 31.2012C55.5905 31.2611 55.6699 31.332 55.7324 31.4141C55.8613 31.5716 55.9544 31.737 56.0117 31.9102C56.0703 32.082 56.0996 32.2734 56.0996 32.4844C56.1035 32.9245 56.0072 33.2786 55.8105 33.5469L55.7246 33.6641C55.6491 33.7682 55.541 33.8555 55.4004 33.9258C55.2598 33.9948 55.1191 34.0423 54.9785 34.0684C54.8379 34.0957 54.696 34.1094 54.5527 34.1094C54.3848 34.1094 54.2298 34.0924 54.0879 34.0586C53.946 34.0247 53.8236 33.9792 53.7207 33.9219C53.6178 33.8646 53.526 33.7949 53.4453 33.7129C53.3646 33.6309 53.2982 33.5443 53.2461 33.4531C53.1953 33.362 53.153 33.263 53.1191 33.1562C53.0866 33.0495 53.0632 32.9453 53.0488 32.8438C53.0358 32.7422 53.0293 32.638 53.0293 32.5312ZM54.584 31.7578C54.5306 31.7578 54.4824 31.7702 54.4395 31.7949C54.3978 31.8197 54.3633 31.8496 54.3359 31.8848C54.3099 31.9199 54.2871 31.9674 54.2676 32.0273C54.248 32.0859 54.2337 32.1393 54.2246 32.1875C54.2155 32.2344 54.2083 32.2943 54.2031 32.3672C54.1979 32.4388 54.1947 32.4948 54.1934 32.5352C54.1934 32.5742 54.1934 32.625 54.1934 32.6875C54.1934 32.7474 54.1953 32.8047 54.1992 32.8594C54.2044 32.9128 54.2142 32.9701 54.2285 33.0312C54.2441 33.0911 54.2637 33.1439 54.2871 33.1895C54.3118 33.2337 54.3451 33.2715 54.3867 33.3027C54.4297 33.3327 54.4785 33.349 54.5332 33.3516C54.5905 33.3516 54.6413 33.3424 54.6855 33.3242C54.7298 33.3047 54.7669 33.2806 54.7969 33.252C54.8268 33.222 54.8522 33.1823 54.873 33.1328C54.8939 33.0833 54.9095 33.0358 54.9199 32.9902C54.9316 32.9447 54.9401 32.888 54.9453 32.8203C54.9518 32.7526 54.9557 32.6947 54.957 32.6465C54.9583 32.597 54.959 32.5352 54.959 32.4609C54.959 32.4062 54.957 32.3555 54.9531 32.3086C54.9505 32.2617 54.9453 32.2096 54.9375 32.1523C54.9297 32.0951 54.9167 32.0449 54.8984 32.002C54.8802 31.9577 54.8581 31.9167 54.832 31.8789C54.806 31.8398 54.7715 31.8099 54.7285 31.7891C54.6868 31.7682 54.6387 31.7578 54.584 31.7578ZM59.2246 34.0078C59.196 34.0365 59.1354 34.0534 59.043 34.0586C58.9518 34.0638 58.8392 34.0625 58.7051 34.0547C58.571 34.0469 58.4993 34.043 58.4902 34.043C58.4017 34.043 58.3379 34.0417 58.2988 34.0391H58.1035C58.0749 34.0299 58.0508 33.9876 58.0312 33.9121C58.0117 33.8353 57.9922 33.7259 57.9727 33.584C57.9544 33.4408 57.9447 33.3646 57.9434 33.3555C57.9382 33.2266 57.9173 33.1419 57.8809 33.1016C57.8444 33.0599 57.778 33.0391 57.6816 33.0391H57.5957V33.9922C57.5931 34.0078 57.5794 34.0208 57.5547 34.0312C57.5299 34.0417 57.4941 34.0482 57.4473 34.0508C57.4017 34.0547 57.3607 34.0566 57.3242 34.0566C57.2891 34.0579 57.2422 34.0579 57.1836 34.0566C57.125 34.0553 57.0892 34.0547 57.0762 34.0547H56.7949C56.6361 34.0547 56.5163 34.056 56.4355 34.0586C56.4173 34.0508 56.3991 34.0417 56.3809 34.0312V31.1172C56.3809 31.0807 56.4329 31.0625 56.5371 31.0625H58.2402C58.5358 31.0703 58.7604 31.1406 58.9141 31.2734C59.069 31.4062 59.1465 31.5938 59.1465 31.8359C59.1465 32.151 58.9876 32.3815 58.6699 32.5273C58.7285 32.5456 58.7812 32.571 58.8281 32.6035C58.875 32.6361 58.9141 32.6712 58.9453 32.709C58.9766 32.7454 59.0039 32.7897 59.0273 32.8418C59.0508 32.8939 59.069 32.9427 59.082 32.9883C59.0951 33.0339 59.1061 33.0879 59.1152 33.1504C59.1257 33.2129 59.1328 33.2669 59.1367 33.3125C59.1406 33.3581 59.1452 33.4128 59.1504 33.4766C59.1569 33.5391 59.1621 33.5885 59.166 33.625V33.7969C59.1699 33.8177 59.1816 33.847 59.2012 33.8848C59.222 33.9225 59.235 33.9505 59.2402 33.9688C59.2402 33.9948 59.235 34.0078 59.2246 34.0078ZM57.584 31.8906C57.584 31.9688 57.5846 32.0267 57.5859 32.0645C57.5872 32.1022 57.5944 32.1517 57.6074 32.2129C57.6204 32.2741 57.64 32.3177 57.666 32.3438C57.7207 32.3438 57.7721 32.3379 57.8203 32.3262C57.8698 32.3145 57.9173 32.2956 57.9629 32.2695C58.0085 32.2435 58.0443 32.2051 58.0703 32.1543C58.0977 32.1022 58.1113 32.0404 58.1113 31.9688C58.1113 31.9284 58.1042 31.8932 58.0898 31.8633C58.0755 31.832 58.0547 31.8073 58.0273 31.7891C58 31.7708 57.9727 31.7565 57.9453 31.7461C57.9193 31.7344 57.8867 31.7266 57.8477 31.7227C57.8099 31.7174 57.7799 31.7142 57.7578 31.7129C57.7357 31.7116 57.709 31.7109 57.6777 31.7109H57.6309C57.6113 31.7201 57.5983 31.7383 57.5918 31.7656C57.5866 31.793 57.584 31.8346 57.584 31.8906ZM59.1973 31.6602C59.1973 31.6367 59.1986 31.6022 59.2012 31.5566C59.2038 31.5098 59.2051 31.4779 59.2051 31.4609C59.2051 31.4544 59.2038 31.431 59.2012 31.3906C59.1986 31.3503 59.1973 31.3151 59.1973 31.2852C59.1973 31.1471 59.2103 31.0781 59.2363 31.0781C59.2467 31.0781 59.2559 31.0794 59.2637 31.082C59.5358 31.082 59.9388 31.0788 60.4727 31.0723C61.0078 31.0658 61.4082 31.0625 61.6738 31.0625C61.7402 31.0625 61.7819 31.0684 61.7988 31.0801C61.8171 31.0918 61.8262 31.1146 61.8262 31.1484V31.2031C61.8262 31.2708 61.8268 31.3711 61.8281 31.5039C61.8294 31.6354 61.8301 31.7357 61.8301 31.8047C61.8301 31.8724 61.8118 31.9062 61.7754 31.9062C61.7025 31.9062 61.5938 31.9049 61.4492 31.9023C61.3047 31.8997 61.196 31.8984 61.123 31.8984V33.9922C61.1139 34.0312 61.0918 34.0521 61.0566 34.0547C61.0111 34.0547 60.9447 34.054 60.8574 34.0527C60.7702 34.0514 60.7038 34.0508 60.6582 34.0508C60.6556 34.0508 60.653 34.0521 60.6504 34.0547C60.5931 34.0547 60.5124 34.054 60.4082 34.0527C60.3053 34.0514 60.2285 34.0508 60.1777 34.0508H60.0605C60.0345 34.0534 59.9967 34.0547 59.9473 34.0547L59.8691 33.9609C59.8691 33.763 59.8757 33.4688 59.8887 33.0781C59.9017 32.6875 59.9082 32.3932 59.9082 32.1953C59.9082 32.1862 59.9076 32.1712 59.9062 32.1504C59.9062 32.1296 59.9062 32.1126 59.9062 32.0996C59.9062 32.0866 59.9049 32.0703 59.9023 32.0508C59.901 32.0312 59.8978 32.0156 59.8926 32.0039C59.8887 31.9909 59.8835 31.9785 59.877 31.9668C59.8704 31.9538 59.8613 31.9447 59.8496 31.9395C59.8392 31.9329 59.8262 31.9297 59.8105 31.9297H59.252C59.2155 31.9193 59.1973 31.8294 59.1973 31.6602Z" fill="#E6DF9A"/>
<g filter="url(#filter0_d_1_125)">
<path d="M37.249 26.168C37.2103 26.5098 37.1203 26.8128 36.979 27.0771C36.8377 27.3392 36.6566 27.5534 36.4355 27.7197C36.2145 27.8838 35.9627 28.008 35.6802 28.0923C35.3999 28.1766 35.0934 28.2188 34.7607 28.2188C34.4508 28.2188 34.1683 28.1846 33.9131 28.1162C33.6579 28.0501 33.4425 27.9613 33.2671 27.8496C33.0916 27.738 32.9367 27.6024 32.8022 27.4429C32.6678 27.2811 32.5607 27.1159 32.481 26.9473C32.4012 26.7764 32.3363 26.5907 32.2861 26.3901C32.2383 26.1873 32.2052 25.9993 32.187 25.8262C32.1711 25.6507 32.1631 25.4684 32.1631 25.2793V24.9785C32.1859 24.6458 32.2633 24.3473 32.3955 24.083C32.5277 23.8164 32.6883 23.6022 32.8774 23.4404C33.0666 23.2764 33.283 23.1408 33.5269 23.0337C33.7707 22.9243 34.0076 22.8491 34.2378 22.8081C34.4679 22.7648 34.6969 22.7432 34.9248 22.7432C35.2917 22.7432 35.6152 22.7876 35.8955 22.8765C36.1781 22.9631 36.4082 23.0861 36.5859 23.2456C36.7637 23.4051 36.9027 23.5885 37.0029 23.7959C37.1032 24.001 37.167 24.2311 37.1943 24.4863V24.8145C37.1943 24.8874 36.9437 24.9238 36.4424 24.9238C36.3239 24.9238 36.1587 24.9215 35.9468 24.917C35.7371 24.9124 35.5993 24.9102 35.5332 24.9102C35.5218 24.9102 35.5047 24.9113 35.4819 24.9136C35.4591 24.9159 35.4421 24.917 35.4307 24.917C35.3714 24.917 35.3258 24.8931 35.2939 24.8452C35.2643 24.7951 35.2438 24.7347 35.2324 24.6641C35.2233 24.5934 35.2108 24.5228 35.1948 24.4521C35.1812 24.3815 35.1504 24.3223 35.1025 24.2744C35.057 24.2243 34.9932 24.1992 34.9111 24.1992C34.8291 24.1992 34.7573 24.2129 34.6958 24.2402C34.6343 24.2676 34.5853 24.3109 34.5488 24.3701C34.5124 24.4271 34.4816 24.4852 34.4565 24.5444C34.4338 24.6037 34.4167 24.6812 34.4053 24.7769C34.3962 24.8703 34.3893 24.95 34.3848 25.0161C34.3825 25.0799 34.3802 25.1665 34.3779 25.2759C34.3757 25.383 34.3734 25.4616 34.3711 25.5117C34.3711 25.5391 34.3688 25.5892 34.3643 25.6621C34.3597 25.735 34.3574 25.7943 34.3574 25.8398C34.3574 26.4072 34.5078 26.6989 34.8086 26.7148C34.8906 26.7148 34.9578 26.6852 35.0103 26.626C35.0627 26.5667 35.098 26.5007 35.1162 26.4277C35.1367 26.3548 35.1595 26.2785 35.1846 26.1987C35.2096 26.1167 35.237 26.0609 35.2666 26.0312H37.126C37.2012 26.0381 37.2422 26.0837 37.249 26.168ZM37.4268 25.4297V25.0537C37.4495 24.7347 37.519 24.4442 37.6353 24.1821C37.7515 23.9178 37.8984 23.6956 38.0762 23.5156C38.2562 23.3356 38.4635 23.1841 38.6982 23.061C38.9329 22.9357 39.1779 22.8446 39.4331 22.7876C39.6906 22.7306 39.9561 22.7021 40.2295 22.7021C40.3799 22.7021 40.536 22.7147 40.6978 22.7397C40.8618 22.7648 41.035 22.8047 41.2173 22.8594C41.3996 22.9141 41.5739 22.995 41.7402 23.1021C41.9089 23.2069 42.0479 23.3311 42.1572 23.4746C42.3828 23.7503 42.5457 24.0397 42.646 24.3428C42.7485 24.6436 42.7998 24.9785 42.7998 25.3477C42.8066 26.1178 42.638 26.7376 42.2939 27.207L42.1436 27.4121C42.0114 27.5944 41.8223 27.7471 41.5762 27.8701C41.3301 27.9909 41.084 28.0741 40.8379 28.1196C40.5918 28.1675 40.3434 28.1914 40.0928 28.1914C39.7988 28.1914 39.5277 28.1618 39.2793 28.1025C39.0309 28.0433 38.8167 27.9635 38.6367 27.8633C38.4567 27.763 38.2961 27.6411 38.1548 27.4976C38.0135 27.354 37.8973 27.2025 37.8062 27.043C37.7173 26.8835 37.6432 26.7103 37.584 26.5234C37.527 26.3366 37.486 26.1543 37.4609 25.9766C37.4382 25.7988 37.4268 25.6165 37.4268 25.4297ZM40.1475 24.0762C40.054 24.0762 39.9697 24.0978 39.8945 24.1411C39.8216 24.1844 39.7612 24.2368 39.7134 24.2983C39.6678 24.3599 39.6279 24.443 39.5938 24.5479C39.5596 24.6504 39.5345 24.7438 39.5186 24.8281C39.5026 24.9102 39.4901 25.015 39.481 25.1426C39.4718 25.2679 39.4661 25.3659 39.4639 25.4365C39.4639 25.5049 39.4639 25.5938 39.4639 25.7031C39.4639 25.8079 39.4673 25.9082 39.4741 26.0039C39.4832 26.0973 39.5003 26.1976 39.5254 26.3047C39.5527 26.4095 39.5869 26.5018 39.6279 26.5815C39.6712 26.659 39.7293 26.7251 39.8022 26.7798C39.8774 26.8322 39.9629 26.8607 40.0586 26.8652C40.1589 26.8652 40.2477 26.8493 40.3252 26.8174C40.4027 26.7832 40.4676 26.741 40.52 26.6909C40.5724 26.6385 40.6169 26.569 40.6533 26.4824C40.6898 26.3958 40.7171 26.3127 40.7354 26.2329C40.7559 26.1532 40.7707 26.054 40.7798 25.9355C40.7912 25.8171 40.798 25.7157 40.8003 25.6313C40.8026 25.5448 40.8037 25.4365 40.8037 25.3066C40.8037 25.2109 40.8003 25.1221 40.7935 25.04C40.7889 24.958 40.7798 24.8669 40.7661 24.7666C40.7524 24.6663 40.7297 24.5786 40.6978 24.5034C40.6659 24.4259 40.6271 24.3542 40.5815 24.2881C40.536 24.2197 40.4756 24.1673 40.4004 24.1309C40.3275 24.0944 40.2432 24.0762 40.1475 24.0762ZM48.1865 26.168C48.1478 26.5098 48.0578 26.8128 47.9165 27.0771C47.7752 27.3392 47.5941 27.5534 47.373 27.7197C47.152 27.8838 46.9002 28.008 46.6177 28.0923C46.3374 28.1766 46.0309 28.2188 45.6982 28.2188C45.3883 28.2188 45.1058 28.1846 44.8506 28.1162C44.5954 28.0501 44.38 27.9613 44.2046 27.8496C44.0291 27.738 43.8742 27.6024 43.7397 27.4429C43.6053 27.2811 43.4982 27.1159 43.4185 26.9473C43.3387 26.7764 43.2738 26.5907 43.2236 26.3901C43.1758 26.1873 43.1427 25.9993 43.1245 25.8262C43.1086 25.6507 43.1006 25.4684 43.1006 25.2793V24.9785C43.1234 24.6458 43.2008 24.3473 43.333 24.083C43.4652 23.8164 43.6258 23.6022 43.8149 23.4404C44.0041 23.2764 44.2205 23.1408 44.4644 23.0337C44.7082 22.9243 44.9451 22.8491 45.1753 22.8081C45.4054 22.7648 45.6344 22.7432 45.8623 22.7432C46.2292 22.7432 46.5527 22.7876 46.833 22.8765C47.1156 22.9631 47.3457 23.0861 47.5234 23.2456C47.7012 23.4051 47.8402 23.5885 47.9404 23.7959C48.0407 24.001 48.1045 24.2311 48.1318 24.4863V24.8145C48.1318 24.8874 47.8812 24.9238 47.3799 24.9238C47.2614 24.9238 47.0962 24.9215 46.8843 24.917C46.6746 24.9124 46.5368 24.9102 46.4707 24.9102C46.4593 24.9102 46.4422 24.9113 46.4194 24.9136C46.3966 24.9159 46.3796 24.917 46.3682 24.917C46.3089 24.917 46.2633 24.8931 46.2314 24.8452C46.2018 24.7951 46.1813 24.7347 46.1699 24.6641C46.1608 24.5934 46.1483 24.5228 46.1323 24.4521C46.1187 24.3815 46.0879 24.3223 46.04 24.2744C45.9945 24.2243 45.9307 24.1992 45.8486 24.1992C45.7666 24.1992 45.6948 24.2129 45.6333 24.2402C45.5718 24.2676 45.5228 24.3109 45.4863 24.3701C45.4499 24.4271 45.4191 24.4852 45.394 24.5444C45.3713 24.6037 45.3542 24.6812 45.3428 24.7769C45.3337 24.8703 45.3268 24.95 45.3223 25.0161C45.32 25.0799 45.3177 25.1665 45.3154 25.2759C45.3132 25.383 45.3109 25.4616 45.3086 25.5117C45.3086 25.5391 45.3063 25.5892 45.3018 25.6621C45.2972 25.735 45.2949 25.7943 45.2949 25.8398C45.2949 26.4072 45.4453 26.6989 45.7461 26.7148C45.8281 26.7148 45.8953 26.6852 45.9478 26.626C46.0002 26.5667 46.0355 26.5007 46.0537 26.4277C46.0742 26.3548 46.097 26.2785 46.1221 26.1987C46.1471 26.1167 46.1745 26.0609 46.2041 26.0312H48.0635C48.1387 26.0381 48.1797 26.0837 48.1865 26.168ZM48.3643 25.4297V25.0537C48.387 24.7347 48.4565 24.4442 48.5728 24.1821C48.689 23.9178 48.8359 23.6956 49.0137 23.5156C49.1937 23.3356 49.401 23.1841 49.6357 23.061C49.8704 22.9357 50.1154 22.8446 50.3706 22.7876C50.6281 22.7306 50.8936 22.7021 51.167 22.7021C51.3174 22.7021 51.4735 22.7147 51.6353 22.7397C51.7993 22.7648 51.9725 22.8047 52.1548 22.8594C52.3371 22.9141 52.5114 22.995 52.6777 23.1021C52.8464 23.2069 52.9854 23.3311 53.0947 23.4746C53.3203 23.7503 53.4832 24.0397 53.5835 24.3428C53.686 24.6436 53.7373 24.9785 53.7373 25.3477C53.7441 26.1178 53.5755 26.7376 53.2314 27.207L53.0811 27.4121C52.9489 27.5944 52.7598 27.7471 52.5137 27.8701C52.2676 27.9909 52.0215 28.0741 51.7754 28.1196C51.5293 28.1675 51.2809 28.1914 51.0303 28.1914C50.7363 28.1914 50.4652 28.1618 50.2168 28.1025C49.9684 28.0433 49.7542 27.9635 49.5742 27.8633C49.3942 27.763 49.2336 27.6411 49.0923 27.4976C48.951 27.354 48.8348 27.2025 48.7437 27.043C48.6548 26.8835 48.5807 26.7103 48.5215 26.5234C48.4645 26.3366 48.4235 26.1543 48.3984 25.9766C48.3757 25.7988 48.3643 25.6165 48.3643 25.4297ZM51.085 24.0762C50.9915 24.0762 50.9072 24.0978 50.832 24.1411C50.7591 24.1844 50.6987 24.2368 50.6509 24.2983C50.6053 24.3599 50.5654 24.443 50.5312 24.5479C50.4971 24.6504 50.472 24.7438 50.4561 24.8281C50.4401 24.9102 50.4276 25.015 50.4185 25.1426C50.4093 25.2679 50.4036 25.3659 50.4014 25.4365C50.4014 25.5049 50.4014 25.5938 50.4014 25.7031C50.4014 25.8079 50.4048 25.9082 50.4116 26.0039C50.4207 26.0973 50.4378 26.1976 50.4629 26.3047C50.4902 26.4095 50.5244 26.5018 50.5654 26.5815C50.6087 26.659 50.6668 26.7251 50.7397 26.7798C50.8149 26.8322 50.9004 26.8607 50.9961 26.8652C51.0964 26.8652 51.1852 26.8493 51.2627 26.8174C51.3402 26.7832 51.4051 26.741 51.4575 26.6909C51.5099 26.6385 51.5544 26.569 51.5908 26.4824C51.6273 26.3958 51.6546 26.3127 51.6729 26.2329C51.6934 26.1532 51.7082 26.054 51.7173 25.9355C51.7287 25.8171 51.7355 25.7157 51.7378 25.6313C51.7401 25.5448 51.7412 25.4365 51.7412 25.3066C51.7412 25.2109 51.7378 25.1221 51.731 25.04C51.7264 24.958 51.7173 24.8669 51.7036 24.7666C51.6899 24.6663 51.6672 24.5786 51.6353 24.5034C51.6034 24.4259 51.5646 24.3542 51.519 24.2881C51.4735 24.2197 51.4131 24.1673 51.3379 24.1309C51.265 24.0944 51.1807 24.0762 51.085 24.0762ZM56.3896 28.2051C56.1208 28.1937 55.8792 28.1698 55.665 28.1333C55.4508 28.0991 55.2435 28.0433 55.043 27.9658C54.8447 27.8861 54.6772 27.7869 54.5405 27.6685C54.4061 27.5477 54.2933 27.3939 54.2021 27.207C54.1133 27.0202 54.0586 26.8037 54.0381 26.5576C54.0381 26.5143 54.0609 26.4893 54.1064 26.4824C54.1201 26.487 54.1429 26.4893 54.1748 26.4893C54.3639 26.4893 54.651 26.4847 55.0361 26.4756C55.4212 26.4665 55.7083 26.4619 55.8975 26.4619C55.9453 26.4619 55.9829 26.4779 56.0103 26.5098C56.0376 26.5394 56.0592 26.577 56.0752 26.6226C56.0934 26.6659 56.1139 26.7103 56.1367 26.7559C56.1618 26.7992 56.2028 26.8368 56.2598 26.8687C56.319 26.8983 56.3942 26.9131 56.4854 26.9131C56.597 26.9131 56.695 26.8823 56.7793 26.8208C56.8659 26.757 56.9092 26.6715 56.9092 26.5645C56.9092 26.4938 56.8727 26.4289 56.7998 26.3696C56.7269 26.3104 56.63 26.2625 56.5093 26.2261C56.3908 26.1873 56.2769 26.1554 56.1675 26.1304C56.0604 26.103 55.9499 26.0802 55.8359 26.062C55.722 26.0415 55.6559 26.029 55.6377 26.0244C55.084 25.874 54.6852 25.6872 54.4414 25.4639C54.1999 25.2406 54.0791 24.9352 54.0791 24.5479C54.0791 24.2744 54.1292 24.0295 54.2295 23.813C54.3298 23.5942 54.4608 23.4165 54.6226 23.2798C54.7843 23.1408 54.9757 23.0257 55.1968 22.9346C55.4178 22.8411 55.6411 22.7762 55.8667 22.7397C56.0923 22.701 56.3258 22.6816 56.5674 22.6816C57.2077 22.6816 57.7181 22.8001 58.0986 23.0371C58.2376 23.1761 58.339 23.2821 58.4028 23.355C58.4689 23.4256 58.5316 23.5088 58.5908 23.6045C58.6523 23.7002 58.6945 23.7948 58.7173 23.8882C58.7424 23.9793 58.7594 24.0921 58.7686 24.2266L58.6455 24.3496C58.1784 24.3678 57.6543 24.377 57.0732 24.377C57.0003 24.377 56.9411 24.369 56.8955 24.353C56.8522 24.3371 56.8226 24.3166 56.8066 24.2915C56.793 24.2664 56.7782 24.2402 56.7622 24.2129C56.7485 24.1855 56.7349 24.1593 56.7212 24.1343C56.7098 24.1092 56.6836 24.0887 56.6426 24.0728C56.6038 24.0568 56.5514 24.0488 56.4854 24.0488C56.4671 24.0488 56.4375 24.0522 56.3965 24.0591C56.3577 24.0659 56.311 24.0773 56.2563 24.0933C56.2039 24.1069 56.1584 24.1297 56.1196 24.1616C56.0809 24.1912 56.0615 24.2266 56.0615 24.2676C56.0615 24.3177 56.0866 24.3633 56.1367 24.4043C56.1891 24.4453 56.2438 24.4749 56.3008 24.4932C56.3577 24.5114 56.4284 24.5319 56.5127 24.5547C56.597 24.5752 56.6494 24.5889 56.6699 24.5957C57.1667 24.721 57.4629 24.7985 57.5586 24.8281C58.0576 24.9854 58.4108 25.1916 58.6182 25.4468C58.8096 25.6838 58.9053 25.9811 58.9053 26.3389C58.9053 26.5553 58.8768 26.7524 58.8198 26.9302C58.7651 27.1079 58.6922 27.2583 58.6011 27.3813C58.5099 27.5044 58.396 27.6138 58.2593 27.7095C58.1226 27.8052 57.9836 27.8815 57.8423 27.9385C57.7033 27.9954 57.5449 28.0433 57.3672 28.082C57.1895 28.1208 57.0254 28.1481 56.875 28.1641C56.7269 28.1823 56.5651 28.196 56.3896 28.2051Z" fill="#E6DF9A"/>
</g>
<g opacity="0.85">
<path d="M27 59H63C57.6667 59.6667 51.6667 60 45 60C38.3333 60 32.3333 59.6667 27 59Z" fill="url(#paint1_linear_1_125)"/>
<path d="M58.5 61.5H31.5C31.2239 61.5 31 61.7239 31 62C31 62.2761 31.2239 62.5 31.5 62.5H58.5C58.7761 62.5 59 62.2761 59 62C59 61.7239 58.7761 61.5 58.5 61.5Z" fill="url(#paint2_linear_1_125)"/>
<path d="M53.6 64H36.4C36.1791 64 36 64.1791 36 64.4C36 64.6209 36.1791 64.8 36.4 64.8H53.6C53.8209 64.8 54 64.6209 54 64.4C54 64.1791 53.8209 64 53.6 64Z" fill="url(#paint3_linear_1_125)"/>
<path d="M40.6 66H34.4C34.1791 66 34 66.1791 34 66.4C34 66.6209 34.1791 66.8 34.4 66.8H40.6C40.8209 66.8 41 66.6209 41 66.4C41 66.1791 40.8209 66 40.6 66Z" fill="url(#paint4_linear_1_125)"/>
<path d="M57.6 66H49.4C49.1791 66 49 66.1791 49 66.4C49 66.6209 49.1791 66.8 49.4 66.8H57.6C57.8209 66.8 58 66.6209 58 66.4C58 66.1791 57.8209 66 57.6 66Z" fill="url(#paint5_linear_1_125)"/>
<path d="M50.65 68H39.35C39.1567 68 39 68.1567 39 68.35C39 68.5433 39.1567 68.7 39.35 68.7H50.65C50.8433 68.7 51 68.5433 51 68.35C51 68.1567 50.8433 68 50.65 68Z" fill="url(#paint6_linear_1_125)"/>
<path d="M41.7 70H37.3C37.1343 70 37 70.1343 37 70.3C37 70.4657 37.1343 70.6 37.3 70.6H41.7C41.8657 70.6 42 70.4657 42 70.3C42 70.1343 41.8657 70 41.7 70Z" fill="url(#paint7_linear_1_125)"/>
<path d="M53.7 70H46.3C46.1343 70 46 70.1343 46 70.3C46 70.4657 46.1343 70.6 46.3 70.6H53.7C53.8657 70.6 54 70.4657 54 70.3C54 70.1343 53.8657 70 53.7 70Z" fill="url(#paint8_linear_1_125)"/>
<path opacity="0.6" d="M49.7 72.5H41.3C41.1343 72.5 41 72.6343 41 72.8C41 72.9657 41.1343 73.1 41.3 73.1H49.7C49.8657 73.1 50 72.9657 50 72.8C50 72.6343 49.8657 72.5 49.7 72.5Z" fill="url(#paint9_linear_1_125)"/>
<path opacity="0.4" d="M46.75 75H43.25C43.1119 75 43 75.1119 43 75.25C43 75.3881 43.1119 75.5 43.25 75.5H46.75C46.8881 75.5 47 75.3881 47 75.25C47 75.1119 46.8881 75 46.75 75Z" fill="url(#paint10_linear_1_125)"/>
</g>
<path d="M25 58C25 52.6957 27.1071 47.6086 30.8579 43.8579C34.6086 40.1071 39.6957 38 45 38C50.3043 38 55.3914 40.1071 59.1421 43.8579C62.8929 47.6086 65 52.6957 65 58H25Z" fill="url(#paint11_linear_1_125)"/>
<defs>
<filter id="filter0_d_1_125" x="28.1631" y="22.6816" width="34.7422" height="13.5371" filterUnits="userSpaceOnUse" color-interpolation-filters="sRGB">
<feFlood flood-opacity="0" result="BackgroundImageFix"/>
<feColorMatrix in="SourceAlpha" type="matrix" values="0 0 0 0 0 0 0 0 0 0 0 0 0 0 0 0 0 0 127 0" result="hardAlpha"/>
<feOffset dy="4"/>
<feGaussianBlur stdDeviation="2"/>
<feComposite in2="hardAlpha" operator="out"/>
<feColorMatrix type="matrix" values="0 0 0 0 0 0 0 0 0 0 0 0 0 0 0 0 0 0 0.25 0"/>
<feBlend mode="normal" in2="BackgroundImageFix" result="effect1_dropShadow_1_125"/>
<feBlend mode="normal" in="SourceGraphic" in2="effect1_dropShadow_1_125" result="shape"/>
</filter>
<linearGradient id="paint0_linear_1_125" x1="0" y1="0" x2="0" y2="90" gradientUnits="userSpaceOnUse">
<stop stop-color="#8B263E"/>
<stop offset="0.4" stop-color="#D3524A"/>
<stop offset="0.75" stop-color="#E27D50"/>
<stop offset="1" stop-color="#F4C463"/>
</linearGradient>
<linearGradient id="paint1_linear_1_125" x1="27" y1="59" x2="27" y2="60" gradientUnits="userSpaceOnUse">
<stop stop-color="#FFFDF0"/>
<stop offset="1" stop-color="#FFD54F"/>
</linearGradient>
<linearGradient id="paint2_linear_1_125" x1="31" y1="61.5" x2="31" y2="62.5" gradientUnits="userSpaceOnUse">
<stop stop-color="#FFFDF0"/>
<stop offset="1" stop-color="#FFD54F"/>
</linearGradient>
<linearGradient id="paint3_linear_1_125" x1="36" y1="64" x2="36" y2="64.8" gradientUnits="userSpaceOnUse">
<stop stop-color="#FFFDF0"/>
<stop offset="1" stop-color="#FFD54F"/>
</linearGradient>
<linearGradient id="paint4_linear_1_125" x1="34" y1="66" x2="34" y2="66.8" gradientUnits="userSpaceOnUse">
<stop stop-color="#FFFDF0"/>
<stop offset="1" stop-color="#FFD54F"/>
</linearGradient>
<linearGradient id="paint5_linear_1_125" x1="49" y1="66" x2="49" y2="66.8" gradientUnits="userSpaceOnUse">
<stop stop-color="#FFFDF0"/>
<stop offset="1" stop-color="#FFD54F"/>
</linearGradient>
<linearGradient id="paint6_linear_1_125" x1="39" y1="68" x2="39" y2="68.7" gradientUnits="userSpaceOnUse">
<stop stop-color="#FFFDF0"/>
<stop offset="1" stop-color="#FFD54F"/>
</linearGradient>
<linearGradient id="paint7_linear_1_125" x1="37" y1="70" x2="37" y2="70.6" gradientUnits="userSpaceOnUse">
<stop stop-color="#FFFDF0"/>
<stop offset="1" stop-color="#FFD54F"/>
</linearGradient>
<linearGradient id="paint8_linear_1_125" x1="46" y1="70" x2="46" y2="70.6" gradientUnits="userSpaceOnUse">
<stop stop-color="#FFFDF0"/>
<stop offset="1" stop-color="#FFD54F"/>
</linearGradient>
<linearGradient id="paint9_linear_1_125" x1="41" y1="72.5" x2="41" y2="73.1" gradientUnits="userSpaceOnUse">
<stop stop-color="#FFFDF0"/>
<stop offset="1" stop-color="#FFD54F"/>
</linearGradient>
<linearGradient id="paint10_linear_1_125" x1="43" y1="75" x2="43" y2="75.5" gradientUnits="userSpaceOnUse">
<stop stop-color="#FFFDF0"/>
<stop offset="1" stop-color="#FFD54F"/>
</linearGradient>
<linearGradient id="paint11_linear_1_125" x1="25" y1="38" x2="25" y2="58" gradientUnits="userSpaceOnUse">
<stop stop-color="#FFFDF0"/>
<stop offset="1" stop-color="#FFD54F"/>
</linearGradient>
</defs>
</svg>
