<svg width="196" height="58" viewBox="0 0 196 58" fill="none" xmlns="http://www.w3.org/2000/svg">
<path opacity="0.9" d="M29 57C44.464 57 57 44.464 57 29C57 13.536 44.464 1 29 1C13.536 1 1 13.536 1 29C1 44.464 13.536 57 29 57Z" stroke="#E6DF9A" stroke-width="2"/>
<mask id="mask0_1_128" style="mask-type:luminance" maskUnits="userSpaceOnUse" x="1" y="1" width="56" height="56">
<path d="M29 56.0455C43.9368 56.0455 56.0455 43.9368 56.0455 29C56.0455 14.0632 43.9368 1.95455 29 1.95455C14.0632 1.95455 1.95454 14.0632 1.95454 29C1.95454 43.9368 14.0632 56.0455 29 56.0455Z" fill="white"/>
</mask>
<g mask="url(#mask0_1_128)">
<path d="M57.6364 0.363636H0.36364V57.6364H57.6364V0.363636Z" fill="url(#paint0_linear_1_128)"/>
<path opacity="0.4" d="M0.36364 36.6364C19.4545 37.4849 38.5455 37.4849 57.6364 36.6364V57.6364H0.36364V36.6364Z" fill="#155AB4"/>
<path opacity="0.25" d="M0.36364 40.4545C10.9697 38.3333 22.6364 38.7576 35.3636 41.7273C48.0909 44.697 55.5152 43.8485 57.6364 39.1818V57.6364H0.36364V40.4545Z" fill="#E6DF9A"/>
<path d="M0.36364 44.9091C15.2121 48.303 29 47.8788 41.7273 43.6364C54.4545 39.3939 59.7576 40.2424 57.6364 46.1818V57.6364H0.36364V44.9091Z" fill="#155AB4"/>
<g opacity="0.95">
<path d="M11.1818 54.4545C12.8788 43.8485 11.6061 32.3939 7.36363 20.0909C8.63636 19.6667 10.5455 25.8182 13.0909 38.5455C13.9394 47.0303 14.1515 52.3333 13.7273 54.4545H11.1818Z" fill="#231F20"/>
<path d="M7.36363 20.0909C0.575755 3.9697 -3.24243 1.42424 -4.09091 12.4545C-1.12122 9.90909 2.69697 12.4545 7.36363 20.0909Z" fill="#231F20"/>
<path d="M7.36364 20.0909C2.27273 9.06061 1.63636 3.12121 5.45455 2.27273C6.30303 7.36364 6.93939 13.303 7.36364 20.0909Z" fill="#231F20"/>
<path d="M7.36363 20.0909C12.0303 10.3333 15.6364 6.72727 18.1818 9.27273C15.2121 12.6667 11.6061 16.2727 7.36363 20.0909Z" fill="#231F20"/>
<path d="M7.36363 20.0909C15 16.697 18.3939 17.1212 17.5455 21.3636C14.1515 21.3636 10.7576 20.9394 7.36363 20.0909Z" fill="#231F20"/>
<path opacity="0.7" d="M4.81818 54.4545C6.09091 45.9697 5.24242 37.0606 2.27273 27.7273C3.12121 27.303 4.60606 31.9697 6.72727 41.7273C7.15152 48.0909 7.15152 52.3333 6.72727 54.4545H4.81818Z" fill="#231F20"/>
<path opacity="0.7" d="M2.27273 27.7273C-3.66666 17.9697 -5.78788 16.2727 -4.09091 22.6364L2.27273 27.7273Z" fill="#231F20"/>
</g>
<g opacity="0.95">
<path d="M50 55.8068C47.0303 43.928 47.4545 31.625 51.2727 18.8977C52.5455 19.322 51.4849 25.6856 48.0909 37.9886C47.2424 47.7462 46.8182 53.6856 46.8182 55.8068H50Z" fill="#231F20"/>
<path d="M51.2727 18.8977C48.7273 7.86742 44.9091 3.625 39.8182 6.17045C43.2121 10.4129 47.0303 14.6553 51.2727 18.8977Z" fill="#231F20"/>
<path d="M51.2727 18.8977C55.5152 7.01894 58.4848 4.04924 60.1818 9.98864C56.7879 13.3826 53.8182 16.3523 51.2727 18.8977Z" fill="#231F20"/>
<path d="M51.2727 18.8977C43.2121 17.625 40.0303 19.5341 41.7273 24.625C45.1212 22.0795 48.303 20.1705 51.2727 18.8977Z" fill="#231F20"/>
<path d="M51.2727 18.8977C58.0606 21.0189 60.1818 24.2008 57.6364 28.4432C50.8485 25.0492 48.7273 21.8674 51.2727 18.8977Z" fill="#231F20"/>
<path opacity="0.7" d="M55.0909 55.8068C53.3939 48.1705 53.8182 39.6856 56.3636 30.3523C57.2121 30.7765 56.5758 35.4432 54.4545 44.3523C54.0303 49.8674 53.8182 53.6856 53.8182 55.8068H55.0909Z" fill="#231F20"/>
</g>
<g opacity="0.5">
<path d="M22.6364 11.1818C23.4849 10.3333 24.3333 10.3333 25.1818 11.1818C26.0303 10.3333 26.8788 10.3333 27.7273 11.1818C26.8788 10.7576 26.0303 10.7576 25.1818 11.1818C24.3333 10.7576 23.4849 10.7576 22.6364 11.1818Z" fill="#231F20"/>
</g>
</g>
<g opacity="0.85">
<path d="M17.5455 37.9091H40.4545C37.0606 38.3333 33.2424 38.5455 29 38.5455C24.7576 38.5455 20.9394 38.3333 17.5455 37.9091Z" fill="url(#paint1_linear_1_128)"/>
<path d="M37.5909 39.5H20.4091C20.2334 39.5 20.0909 39.6425 20.0909 39.8182C20.0909 39.9939 20.2334 40.1364 20.4091 40.1364H37.5909C37.7666 40.1364 37.9091 39.9939 37.9091 39.8182C37.9091 39.6425 37.7666 39.5 37.5909 39.5Z" fill="url(#paint2_linear_1_128)"/>
<path d="M34.4727 41.0909H23.5273C23.3867 41.0909 23.2727 41.2049 23.2727 41.3455C23.2727 41.486 23.3867 41.6 23.5273 41.6H34.4727C34.6133 41.6 34.7273 41.486 34.7273 41.3455C34.7273 41.2049 34.6133 41.0909 34.4727 41.0909Z" fill="url(#paint3_linear_1_128)"/>
<path d="M26.2 42.3636H22.2545C22.114 42.3636 22 42.4776 22 42.6182C22 42.7588 22.114 42.8727 22.2545 42.8727H26.2C26.3406 42.8727 26.4545 42.7588 26.4545 42.6182C26.4545 42.4776 26.3406 42.3636 26.2 42.3636Z" fill="url(#paint4_linear_1_128)"/>
<path d="M37.0182 42.3636H31.8C31.6594 42.3636 31.5455 42.4776 31.5455 42.6182C31.5455 42.7588 31.6594 42.8727 31.8 42.8727H37.0182C37.1588 42.8727 37.2727 42.7588 37.2727 42.6182C37.2727 42.4776 37.1588 42.3636 37.0182 42.3636Z" fill="url(#paint5_linear_1_128)"/>
<path d="M32.5955 43.6364H25.4045C25.2815 43.6364 25.1818 43.7361 25.1818 43.8591C25.1818 43.9821 25.2815 44.0818 25.4045 44.0818H32.5955C32.7185 44.0818 32.8182 43.9821 32.8182 43.8591C32.8182 43.7361 32.7185 43.6364 32.5955 43.6364Z" fill="url(#paint6_linear_1_128)"/>
<path d="M26.9 44.9091H24.1C23.9946 44.9091 23.9091 44.9946 23.9091 45.1C23.9091 45.2054 23.9946 45.2909 24.1 45.2909H26.9C27.0054 45.2909 27.0909 45.2054 27.0909 45.1C27.0909 44.9946 27.0054 44.9091 26.9 44.9091Z" fill="url(#paint7_linear_1_128)"/>
<path d="M34.5364 44.9091H29.8273C29.7218 44.9091 29.6364 44.9946 29.6364 45.1C29.6364 45.2054 29.7218 45.2909 29.8273 45.2909H34.5364C34.6418 45.2909 34.7273 45.2054 34.7273 45.1C34.7273 44.9946 34.6418 44.9091 34.5364 44.9091Z" fill="url(#paint8_linear_1_128)"/>
<path opacity="0.6" d="M31.9909 46.5H26.6455C26.54 46.5 26.4545 46.5855 26.4545 46.6909C26.4545 46.7963 26.54 46.8818 26.6455 46.8818H31.9909C32.0963 46.8818 32.1818 46.7963 32.1818 46.6909C32.1818 46.5855 32.0963 46.5 31.9909 46.5Z" fill="url(#paint9_linear_1_128)"/>
<path opacity="0.4" d="M30.1136 48.0909H27.8864C27.7985 48.0909 27.7273 48.1621 27.7273 48.25C27.7273 48.3379 27.7985 48.4091 27.8864 48.4091H30.1136C30.2015 48.4091 30.2727 48.3379 30.2727 48.25C30.2727 48.1621 30.2015 48.0909 30.1136 48.0909Z" fill="url(#paint10_linear_1_128)"/>
</g>
<path d="M16.2727 37.2727C16.2727 33.8972 17.6136 30.66 20.0005 28.2732C22.3873 25.8864 25.6245 24.5455 29 24.5455C32.3755 24.5455 35.6127 25.8864 37.9995 28.2732C40.3864 30.66 41.7273 33.8972 41.7273 37.2727H16.2727Z" fill="url(#paint11_linear_1_128)"/>
<path d="M70.1636 47.0039V37.1455L76.4917 36.9258C76.8823 36.9258 77.2485 36.9502 77.5903 36.999C77.9321 37.0479 78.2764 37.1406 78.623 37.2773C78.9746 37.4092 79.2725 37.5825 79.5166 37.7974C79.7656 38.0073 79.9683 38.2881 80.1245 38.6396C80.2808 38.9912 80.3589 39.3965 80.3589 39.8555C80.3589 40.4658 80.2246 40.9614 79.9561 41.3423C79.6875 41.7183 79.2847 42.0527 78.7476 42.3457C79.3774 42.5215 79.856 42.8267 80.1831 43.2612C80.5151 43.6909 80.6812 44.2354 80.6812 44.8945C80.6812 45.3828 80.5884 45.8223 80.4028 46.2129C80.2173 46.5986 79.978 46.9136 79.6851 47.1577C79.3921 47.4019 79.0479 47.6045 78.6523 47.7656C78.2568 47.9268 77.8638 48.0391 77.4731 48.1025C77.0874 48.1709 76.6919 48.2051 76.2866 48.2051C76.0522 48.2051 75.6982 48.2002 75.2246 48.1904C74.7559 48.1807 74.4019 48.1758 74.1626 48.1758C72.8052 48.1758 71.5601 48.1953 70.4272 48.2344C70.2661 47.9756 70.1782 47.5654 70.1636 47.0039ZM74.3677 39.5918C74.3677 39.8115 74.375 40.1387 74.3896 40.5732C74.4043 41.0078 74.4116 41.335 74.4116 41.5547C74.4116 41.6475 74.4702 41.7012 74.5874 41.7158C74.6558 41.7061 74.7729 41.6914 74.939 41.6719C75.1099 41.6475 75.2441 41.6279 75.3418 41.6133C75.4395 41.5986 75.5566 41.5645 75.6934 41.5107C75.835 41.4521 75.9448 41.3838 76.0229 41.3057C76.1011 41.2275 76.1694 41.1152 76.228 40.9688C76.2866 40.8174 76.3159 40.6416 76.3159 40.4414C76.3159 39.6992 75.8032 39.3281 74.7778 39.3281C74.5728 39.3623 74.4531 39.3965 74.4189 39.4307C74.3848 39.4697 74.3677 39.5234 74.3677 39.5918ZM74.4995 45.1729C74.4995 45.5342 74.519 45.7148 74.5581 45.7148H74.7925C74.9829 45.7148 75.1465 45.71 75.2832 45.7002C75.4248 45.6855 75.5762 45.6538 75.7373 45.605C75.8984 45.5562 76.0278 45.4902 76.1255 45.4072C76.2231 45.3193 76.3062 45.1973 76.3745 45.041C76.4429 44.8848 76.4771 44.6992 76.4771 44.4844C76.4771 44.3623 76.4648 44.25 76.4404 44.1475C76.416 44.0449 76.377 43.957 76.3232 43.8838C76.2695 43.8105 76.2158 43.7471 76.1621 43.6934C76.1133 43.6396 76.04 43.5957 75.9424 43.5615C75.8496 43.5225 75.7715 43.4932 75.708 43.4736C75.6494 43.4492 75.5591 43.4297 75.437 43.415C75.3149 43.4004 75.2271 43.3906 75.1733 43.3857C75.1196 43.3809 75.0269 43.376 74.895 43.3711C74.7632 43.3613 74.6802 43.3564 74.646 43.3564V43.6348C74.6411 43.6885 74.6143 43.8691 74.5654 44.1768C74.5215 44.4844 74.4995 44.7285 74.4995 44.9092V45.1729ZM81.6626 47.7363V47.458C81.6626 46.623 81.6724 45.3901 81.6919 43.7593C81.7114 42.1284 81.7212 40.8955 81.7212 40.0605V37.0283H90.2466V39.4307C90.2466 39.4453 90.2466 39.4819 90.2466 39.5405C90.2466 39.5991 90.2466 39.6382 90.2466 39.6577C90.2466 39.6772 90.2441 39.7139 90.2393 39.7676C90.2344 39.8164 90.2246 39.8506 90.21 39.8701C90.2002 39.8896 90.1831 39.9189 90.1587 39.958C90.1392 39.9922 90.1147 40.0166 90.0854 40.0312C90.0562 40.0459 90.0171 40.0605 89.9683 40.0752C89.9194 40.085 89.8657 40.0898 89.8071 40.0898H89.6021C88.3374 40.0898 87.1851 40.0703 86.145 40.0312C86.1353 40.1094 86.1182 40.2314 86.0938 40.3975C86.0742 40.5586 86.0571 40.7026 86.0425 40.8296C86.0327 40.9517 86.0278 41.0713 86.0278 41.1885H89.5142C89.6606 41.1885 89.7583 41.208 89.8071 41.2471C89.856 41.2861 89.8804 41.3496 89.8804 41.4375C89.8804 41.4619 89.8779 41.501 89.873 41.5547C89.8682 41.6084 89.8657 41.6475 89.8657 41.6719C89.8657 41.9062 89.873 42.2529 89.8877 42.7119C89.9023 43.1709 89.9097 43.5176 89.9097 43.752C89.895 43.8496 89.856 43.8984 89.7925 43.8984C89.7632 43.8984 89.7388 43.8887 89.7192 43.8691C88.1763 43.9473 87.0337 43.9863 86.2915 43.9863H86.1011V45.041C86.5356 45.041 87.1631 45.0215 87.9834 44.9824C88.8086 44.9434 89.4263 44.9238 89.8364 44.9238C90.1587 44.9238 90.3442 44.9922 90.3931 45.1289V45.6855C90.3931 45.9199 90.3979 46.2666 90.4077 46.7256C90.4175 47.1846 90.4224 47.5312 90.4224 47.7656C90.4224 48.0098 90.3247 48.1318 90.1294 48.1318C89.8755 48.1318 89.4849 48.1294 88.9575 48.1245C88.4302 48.1196 88.0298 48.1172 87.7563 48.1172C87.0532 48.1172 86.0474 48.1343 84.7388 48.1685C83.4302 48.2075 82.4829 48.2295 81.897 48.2344L81.6919 48C81.6724 47.8633 81.6626 47.7754 81.6626 47.7363ZM90.2026 48C90.5054 46.8818 90.8398 45.7466 91.2061 44.5942C91.5723 43.4419 92.0264 42.0649 92.5684 40.4634C93.1152 38.8569 93.4888 37.7461 93.689 37.1309C93.7476 37.0332 93.7866 36.9746 93.8062 36.9551H95.0366C95.3247 36.9551 95.7495 36.9502 96.311 36.9404C96.8726 36.9307 97.2974 36.9258 97.5854 36.9258H98.8159C98.8892 36.9258 98.9502 36.9282 98.999 36.9331C99.0479 36.9331 99.1064 36.938 99.1748 36.9478C99.2432 36.9575 99.2969 36.9722 99.3359 36.9917C99.3799 37.0112 99.4165 37.0405 99.4458 37.0796C99.4751 37.1187 99.4897 37.165 99.4897 37.2188L102.866 47.9194C102.866 48.0171 102.83 48.083 102.756 48.1172C102.688 48.1562 102.556 48.1758 102.361 48.1758H101.687C101.492 48.1758 101.201 48.1782 100.815 48.1831C100.43 48.188 100.139 48.1904 99.9438 48.1904C99.8853 48.1904 99.7656 48.1929 99.585 48.1978C99.4092 48.2075 99.2603 48.21 99.1382 48.2051C99.0161 48.2051 98.8794 48.1978 98.728 48.1831C98.5815 48.1733 98.4619 48.1465 98.3691 48.1025C98.2812 48.0635 98.2251 48.0098 98.2007 47.9414V47.458C98.1519 47.2139 98.0664 46.9893 97.9443 46.7842C97.8223 46.5791 97.6929 46.4766 97.5562 46.4766H95.0366L94.6558 48.0293C94.6021 48.1465 94.3286 48.2051 93.8354 48.2051H93.2495C93.0396 48.2051 92.7271 48.2124 92.312 48.2271C91.897 48.2417 91.5845 48.249 91.3745 48.249H91.1694C91.0913 48.249 90.9668 48.2515 90.7959 48.2563C90.6299 48.2612 90.5005 48.2637 90.4077 48.2637C90.3687 48.2246 90.3003 48.1367 90.2026 48ZM95.2856 43.5542L95.4907 43.8984H95.9741C96.3647 43.8984 96.7212 43.8765 97.0435 43.8325C97.3706 43.7837 97.5342 43.708 97.5342 43.6055L96.5894 39.3867C96.5015 39.3867 96.3818 39.5527 96.2305 39.8848C96.084 40.2168 95.9644 40.5928 95.8716 41.0127L95.2856 43.5542ZM113.743 44.0742C113.66 44.8066 113.467 45.4561 113.164 46.0225C112.861 46.584 112.473 47.043 112 47.3994C111.526 47.751 110.986 48.0171 110.381 48.1978C109.78 48.3784 109.124 48.4688 108.411 48.4688C107.747 48.4688 107.141 48.3955 106.594 48.249C106.047 48.1074 105.586 47.917 105.21 47.6777C104.834 47.4385 104.502 47.1479 104.214 46.8062C103.926 46.4595 103.696 46.1055 103.525 45.7441C103.354 45.3779 103.215 44.98 103.108 44.5503C103.005 44.1157 102.935 43.7129 102.896 43.3418C102.861 42.9658 102.844 42.5752 102.844 42.1699V41.5254C102.893 40.8125 103.059 40.1729 103.342 39.6064C103.625 39.0352 103.97 38.5762 104.375 38.2295C104.78 37.8779 105.244 37.5874 105.767 37.3579C106.289 37.1235 106.797 36.9624 107.29 36.8745C107.783 36.7817 108.274 36.7354 108.762 36.7354C109.548 36.7354 110.242 36.8306 110.842 37.021C111.448 37.2065 111.941 37.4702 112.322 37.812C112.703 38.1538 113 38.5469 113.215 38.9912C113.43 39.4307 113.567 39.9238 113.625 40.4707V41.1738C113.625 41.3301 113.088 41.4082 112.014 41.4082C111.76 41.4082 111.406 41.4033 110.952 41.3936C110.503 41.3838 110.208 41.3789 110.066 41.3789C110.042 41.3789 110.005 41.3813 109.956 41.3862C109.907 41.3911 109.871 41.3936 109.846 41.3936C109.719 41.3936 109.622 41.3423 109.553 41.2397C109.49 41.1323 109.446 41.0029 109.421 40.8516C109.402 40.7002 109.375 40.5488 109.341 40.3975C109.312 40.2461 109.246 40.1191 109.143 40.0166C109.045 39.9092 108.909 39.8555 108.733 39.8555C108.557 39.8555 108.403 39.8848 108.271 39.9434C108.14 40.002 108.035 40.0947 107.957 40.2217C107.878 40.3438 107.812 40.4683 107.759 40.5952C107.71 40.7222 107.673 40.8882 107.649 41.0933C107.629 41.2935 107.615 41.4644 107.605 41.606C107.6 41.7427 107.595 41.9282 107.59 42.1626C107.585 42.3921 107.581 42.5605 107.576 42.668C107.576 42.7266 107.571 42.834 107.561 42.9902C107.551 43.1465 107.546 43.2734 107.546 43.3711C107.546 44.5869 107.869 45.2119 108.513 45.2461C108.689 45.2461 108.833 45.1826 108.945 45.0557C109.058 44.9287 109.133 44.7871 109.172 44.6309C109.216 44.4746 109.265 44.311 109.319 44.1401C109.373 43.9644 109.431 43.8447 109.495 43.7812H113.479C113.64 43.7959 113.728 43.8936 113.743 44.0742ZM116.584 48.1904C116.448 48.1904 116.289 48.1929 116.108 48.1978C115.928 48.2075 115.789 48.2148 115.691 48.2197C115.593 48.2246 115.481 48.2222 115.354 48.2124C115.232 48.2075 115.139 48.1904 115.076 48.1611C115.012 48.1367 114.944 48.0977 114.871 48.0439C114.802 47.9902 114.751 47.917 114.717 47.8242C114.688 47.7314 114.661 47.6167 114.636 47.48C114.617 47.3433 114.607 47.1797 114.607 46.9893C114.607 45.9346 114.626 44.4966 114.666 42.6753C114.705 40.8491 114.724 39.5088 114.724 38.6543C114.724 37.5996 114.778 37.043 114.885 36.9844H117.61C118.093 36.9844 118.452 37.0137 118.687 37.0723C118.926 37.126 119.084 37.209 119.163 37.3213C119.241 37.4336 119.28 37.6045 119.28 37.834C119.28 37.9023 119.275 38.0366 119.265 38.2368C119.255 38.4321 119.25 38.5957 119.25 38.7275V39.0645C119.25 39.2207 119.243 39.4551 119.229 39.7676C119.214 40.0801 119.207 40.3145 119.207 40.4707V40.6172C119.216 40.6465 119.221 40.6855 119.221 40.7344H119.514C119.597 40.7344 119.724 40.7368 119.895 40.7417C120.066 40.7466 120.193 40.749 120.276 40.749C120.5 40.749 120.667 40.7344 120.774 40.7051V37.6582C120.774 37.4141 120.786 37.2407 120.811 37.1382C120.835 37.0308 120.869 36.9648 120.913 36.9404C120.957 36.9111 121.038 36.8965 121.155 36.8965C121.218 36.8965 121.321 36.8989 121.462 36.9038C121.604 36.9087 121.707 36.9111 121.77 36.9111L122.312 36.8892C122.678 36.8745 123.005 36.8672 123.293 36.8672C124.622 36.8672 125.286 37.0137 125.286 37.3066C125.286 37.3848 125.288 37.4971 125.293 37.6436C125.298 37.79 125.3 37.9023 125.3 37.9805C125.3 38.1514 125.298 38.4004 125.293 38.7275C125.288 39.0547 125.286 39.3037 125.286 39.4746C125.286 39.9824 125.293 40.7393 125.308 41.7451C125.322 42.751 125.33 43.5078 125.33 44.0156C125.33 44.0596 125.327 44.1157 125.322 44.1841C125.317 44.2476 125.315 44.2891 125.315 44.3086V44.6602C125.315 44.9727 125.32 45.207 125.33 45.3633V45.5244C125.32 45.5439 125.315 45.5732 125.315 45.6123C125.315 45.8711 125.32 46.2642 125.33 46.7915C125.339 47.3188 125.344 47.7119 125.344 47.9707C125.31 48.1465 124.841 48.2344 123.938 48.2344H120.891L120.671 47.9268V47.4434C120.671 47.1162 120.674 46.6328 120.679 45.9932C120.684 45.3535 120.686 44.8701 120.686 44.543C120.686 44.4307 120.671 44.355 120.642 44.3159C120.618 44.272 120.564 44.25 120.481 44.25H120.217C119.885 44.25 119.583 44.2695 119.309 44.3086C119.309 44.7139 119.304 45.3242 119.294 46.1396C119.285 46.9502 119.28 47.5605 119.28 47.9707C119.221 48.1172 118.611 48.1904 117.449 48.1904H116.584ZM141.941 48.0293C141.833 48.1367 141.606 48.2002 141.26 48.2197C140.918 48.2393 140.496 48.2344 139.993 48.2051C139.49 48.1758 139.221 48.1611 139.187 48.1611C138.855 48.1611 138.616 48.1562 138.469 48.1465H137.737C137.629 48.1123 137.539 47.9536 137.466 47.6704C137.393 47.3823 137.319 46.9722 137.246 46.4399C137.178 45.9028 137.141 45.6172 137.136 45.583C137.117 45.0996 137.039 44.7822 136.902 44.6309C136.765 44.4746 136.516 44.3965 136.155 44.3965H135.833V47.9707C135.823 48.0293 135.771 48.0781 135.679 48.1172C135.586 48.1562 135.452 48.1807 135.276 48.1904C135.105 48.2051 134.951 48.2124 134.814 48.2124C134.683 48.2173 134.507 48.2173 134.287 48.2124C134.067 48.2075 133.933 48.2051 133.884 48.2051H132.83C132.234 48.2051 131.785 48.21 131.482 48.2197C131.414 48.1904 131.345 48.1562 131.277 48.1172V37.1895C131.277 37.0527 131.472 36.9844 131.863 36.9844H138.25C139.358 37.0137 140.2 37.2773 140.776 37.7754C141.357 38.2734 141.648 38.9766 141.648 39.8848C141.648 41.0664 141.052 41.9307 139.861 42.4775C140.081 42.5459 140.278 42.6411 140.454 42.7632C140.63 42.8853 140.776 43.0171 140.894 43.1587C141.011 43.2954 141.113 43.4614 141.201 43.6567C141.289 43.8521 141.357 44.0352 141.406 44.2061C141.455 44.377 141.497 44.5796 141.531 44.814C141.57 45.0483 141.597 45.251 141.611 45.4219C141.626 45.5928 141.643 45.7979 141.663 46.0371C141.687 46.2715 141.707 46.457 141.721 46.5938V47.2383C141.736 47.3164 141.78 47.4263 141.853 47.5679C141.931 47.7095 141.98 47.8145 142 47.8828C142 47.9805 141.98 48.0293 141.941 48.0293ZM135.789 40.0898C135.789 40.3828 135.791 40.6001 135.796 40.7417C135.801 40.8833 135.828 41.0688 135.876 41.2983C135.925 41.5278 135.999 41.6914 136.096 41.7891C136.301 41.7891 136.494 41.7671 136.675 41.7231C136.86 41.6792 137.039 41.6084 137.209 41.5107C137.38 41.4131 137.515 41.269 137.612 41.0786C137.715 40.8833 137.766 40.6514 137.766 40.3828C137.766 40.2314 137.739 40.0996 137.686 39.9873C137.632 39.8701 137.554 39.7773 137.451 39.709C137.349 39.6406 137.246 39.5869 137.144 39.5479C137.046 39.5039 136.924 39.4746 136.777 39.46C136.636 39.4404 136.523 39.4282 136.44 39.4233C136.357 39.4185 136.257 39.416 136.14 39.416H135.964C135.891 39.4502 135.842 39.5186 135.818 39.6211C135.798 39.7236 135.789 39.8799 135.789 40.0898ZM142.673 47.7363V47.458C142.673 46.623 142.683 45.3901 142.703 43.7593C142.722 42.1284 142.732 40.8955 142.732 40.0605V37.0283H151.257V39.4307C151.257 39.4453 151.257 39.4819 151.257 39.5405C151.257 39.5991 151.257 39.6382 151.257 39.6577C151.257 39.6772 151.255 39.7139 151.25 39.7676C151.245 39.8164 151.235 39.8506 151.221 39.8701C151.211 39.8896 151.194 39.9189 151.169 39.958C151.15 39.9922 151.125 40.0166 151.096 40.0312C151.067 40.0459 151.028 40.0605 150.979 40.0752C150.93 40.085 150.876 40.0898 150.818 40.0898H150.613C149.348 40.0898 148.196 40.0703 147.156 40.0312C147.146 40.1094 147.129 40.2314 147.104 40.3975C147.085 40.5586 147.068 40.7026 147.053 40.8296C147.043 40.9517 147.039 41.0713 147.039 41.1885H150.525C150.671 41.1885 150.769 41.208 150.818 41.2471C150.867 41.2861 150.891 41.3496 150.891 41.4375C150.891 41.4619 150.889 41.501 150.884 41.5547C150.879 41.6084 150.876 41.6475 150.876 41.6719C150.876 41.9062 150.884 42.2529 150.898 42.7119C150.913 43.1709 150.92 43.5176 150.92 43.752C150.906 43.8496 150.867 43.8984 150.803 43.8984C150.774 43.8984 150.75 43.8887 150.73 43.8691C149.187 43.9473 148.044 43.9863 147.302 43.9863H147.112V45.041C147.546 45.041 148.174 45.0215 148.994 44.9824C149.819 44.9434 150.437 44.9238 150.847 44.9238C151.169 44.9238 151.355 44.9922 151.404 45.1289V45.6855C151.404 45.9199 151.409 46.2666 151.418 46.7256C151.428 47.1846 151.433 47.5312 151.433 47.7656C151.433 48.0098 151.335 48.1318 151.14 48.1318C150.886 48.1318 150.496 48.1294 149.968 48.1245C149.441 48.1196 149.041 48.1172 148.767 48.1172C148.064 48.1172 147.058 48.1343 145.75 48.1685C144.441 48.2075 143.494 48.2295 142.908 48.2344L142.703 48C142.683 47.8633 142.673 47.7754 142.673 47.7363ZM156.897 48.4395C156.321 48.415 155.803 48.3638 155.344 48.2856C154.885 48.2124 154.441 48.0928 154.011 47.9268C153.586 47.7559 153.228 47.5435 152.935 47.2896C152.646 47.0308 152.405 46.7012 152.209 46.3008C152.019 45.9004 151.902 45.4365 151.858 44.9092C151.858 44.8164 151.907 44.7627 152.004 44.748C152.034 44.7578 152.083 44.7627 152.151 44.7627C152.556 44.7627 153.171 44.7529 153.997 44.7334C154.822 44.7139 155.437 44.7041 155.842 44.7041C155.945 44.7041 156.025 44.7383 156.084 44.8066C156.143 44.8701 156.189 44.9507 156.223 45.0483C156.262 45.1411 156.306 45.2363 156.355 45.334C156.409 45.4268 156.497 45.5073 156.619 45.5757C156.746 45.6392 156.907 45.6709 157.102 45.6709C157.341 45.6709 157.551 45.605 157.732 45.4731C157.917 45.3364 158.01 45.1533 158.01 44.9238C158.01 44.7725 157.932 44.6333 157.776 44.5063C157.62 44.3794 157.412 44.2769 157.153 44.1987C156.899 44.1157 156.655 44.0474 156.421 43.9937C156.191 43.9351 155.955 43.8862 155.71 43.8472C155.466 43.8032 155.325 43.7764 155.286 43.7666C154.099 43.4443 153.245 43.0439 152.722 42.5654C152.205 42.0869 151.946 41.4326 151.946 40.6025C151.946 40.0166 152.053 39.4917 152.268 39.0278C152.483 38.5591 152.764 38.1782 153.11 37.8853C153.457 37.5874 153.867 37.3408 154.341 37.1455C154.814 36.9453 155.293 36.8062 155.776 36.728C156.26 36.645 156.76 36.6035 157.278 36.6035C158.65 36.6035 159.744 36.8574 160.559 37.3652C160.857 37.6631 161.074 37.8901 161.211 38.0464C161.353 38.1978 161.487 38.376 161.614 38.5811C161.746 38.7861 161.836 38.9888 161.885 39.189C161.938 39.3843 161.975 39.626 161.995 39.9141L161.731 40.1777C160.73 40.2168 159.607 40.2363 158.362 40.2363C158.206 40.2363 158.079 40.2192 157.981 40.1851C157.888 40.1509 157.825 40.1069 157.791 40.0532C157.761 39.9995 157.729 39.9434 157.695 39.8848C157.666 39.8262 157.637 39.77 157.607 39.7163C157.583 39.6626 157.527 39.6187 157.439 39.5845C157.356 39.5503 157.244 39.5332 157.102 39.5332C157.063 39.5332 157 39.5405 156.912 39.5552C156.829 39.5698 156.729 39.5942 156.611 39.6284C156.499 39.6577 156.401 39.7065 156.318 39.7749C156.235 39.8384 156.194 39.9141 156.194 40.002C156.194 40.1094 156.248 40.207 156.355 40.2949C156.467 40.3828 156.584 40.4463 156.707 40.4854C156.829 40.5244 156.98 40.5684 157.161 40.6172C157.341 40.6611 157.454 40.6904 157.498 40.7051C158.562 40.9736 159.197 41.1396 159.402 41.2031C160.471 41.54 161.228 41.9819 161.672 42.5288C162.083 43.0366 162.288 43.6738 162.288 44.4404C162.288 44.9043 162.227 45.3267 162.104 45.7075C161.987 46.0884 161.831 46.4106 161.636 46.6743C161.44 46.938 161.196 47.1724 160.903 47.3774C160.61 47.5825 160.312 47.7461 160.01 47.8682C159.712 47.9902 159.373 48.0928 158.992 48.1758C158.611 48.2588 158.259 48.3174 157.937 48.3516C157.62 48.3906 157.273 48.4199 156.897 48.4395ZM162.61 42.4922V41.6865C162.659 41.0029 162.808 40.3804 163.057 39.8188C163.306 39.2524 163.621 38.7764 164.001 38.3906C164.387 38.0049 164.832 37.6802 165.334 37.4165C165.837 37.1479 166.362 36.9526 166.909 36.8306C167.461 36.7085 168.03 36.6475 168.616 36.6475C168.938 36.6475 169.272 36.6743 169.619 36.728C169.971 36.7817 170.342 36.8672 170.732 36.9844C171.123 37.1016 171.497 37.2749 171.853 37.5044C172.214 37.729 172.512 37.9951 172.747 38.3027C173.23 38.8936 173.579 39.5137 173.794 40.1631C174.014 40.8076 174.124 41.5254 174.124 42.3164C174.138 43.9668 173.777 45.2949 173.04 46.3008L172.717 46.7402C172.434 47.1309 172.029 47.458 171.501 47.7217C170.974 47.9805 170.447 48.1587 169.919 48.2563C169.392 48.3589 168.86 48.4102 168.323 48.4102C167.693 48.4102 167.112 48.3467 166.58 48.2197C166.047 48.0928 165.588 47.9219 165.203 47.707C164.817 47.4922 164.473 47.231 164.17 46.9233C163.867 46.6157 163.618 46.291 163.423 45.9492C163.232 45.6074 163.074 45.2363 162.947 44.8359C162.825 44.4355 162.737 44.0449 162.683 43.6641C162.634 43.2832 162.61 42.8926 162.61 42.4922ZM168.44 39.5918C168.24 39.5918 168.059 39.6382 167.898 39.731C167.742 39.8237 167.612 39.936 167.51 40.0679C167.412 40.1997 167.327 40.3779 167.253 40.6025C167.18 40.8223 167.126 41.0225 167.092 41.2031C167.058 41.3789 167.031 41.6035 167.012 41.877C166.992 42.1455 166.98 42.3555 166.975 42.5068C166.975 42.6533 166.975 42.8438 166.975 43.0781C166.975 43.3027 166.982 43.5176 166.997 43.7227C167.017 43.9229 167.053 44.1377 167.107 44.3672C167.166 44.5918 167.239 44.7896 167.327 44.9604C167.419 45.1265 167.544 45.2681 167.7 45.3853C167.861 45.4976 168.044 45.5586 168.25 45.5684C168.464 45.5684 168.655 45.5342 168.821 45.4658C168.987 45.3926 169.126 45.3022 169.238 45.1948C169.351 45.0825 169.446 44.9336 169.524 44.748C169.602 44.5625 169.661 44.3843 169.7 44.2134C169.744 44.0425 169.775 43.8301 169.795 43.5762C169.819 43.3223 169.834 43.105 169.839 42.9243C169.844 42.7388 169.846 42.5068 169.846 42.2285C169.846 42.0234 169.839 41.833 169.824 41.6572C169.814 41.4814 169.795 41.2861 169.766 41.0713C169.736 40.8564 169.688 40.6685 169.619 40.5073C169.551 40.3413 169.468 40.1875 169.37 40.0459C169.272 39.8994 169.143 39.7871 168.982 39.709C168.826 39.6309 168.645 39.5918 168.44 39.5918ZM185.842 48.0293C185.735 48.1367 185.508 48.2002 185.161 48.2197C184.819 48.2393 184.397 48.2344 183.894 48.2051C183.391 48.1758 183.123 48.1611 183.088 48.1611C182.756 48.1611 182.517 48.1562 182.371 48.1465H181.638C181.531 48.1123 181.44 47.9536 181.367 47.6704C181.294 47.3823 181.221 46.9722 181.147 46.4399C181.079 45.9028 181.042 45.6172 181.038 45.583C181.018 45.0996 180.94 44.7822 180.803 44.6309C180.667 44.4746 180.417 44.3965 180.056 44.3965H179.734V47.9707C179.724 48.0293 179.673 48.0781 179.58 48.1172C179.487 48.1562 179.353 48.1807 179.177 48.1904C179.006 48.2051 178.853 48.2124 178.716 48.2124C178.584 48.2173 178.408 48.2173 178.188 48.2124C177.969 48.2075 177.834 48.2051 177.786 48.2051H176.731C176.135 48.2051 175.686 48.21 175.383 48.2197C175.315 48.1904 175.247 48.1562 175.178 48.1172V37.1895C175.178 37.0527 175.374 36.9844 175.764 36.9844H182.151C183.259 37.0137 184.102 37.2773 184.678 37.7754C185.259 38.2734 185.549 38.9766 185.549 39.8848C185.549 41.0664 184.954 41.9307 183.762 42.4775C183.982 42.5459 184.18 42.6411 184.355 42.7632C184.531 42.8853 184.678 43.0171 184.795 43.1587C184.912 43.2954 185.015 43.4614 185.103 43.6567C185.19 43.8521 185.259 44.0352 185.308 44.2061C185.356 44.377 185.398 44.5796 185.432 44.814C185.471 45.0483 185.498 45.251 185.513 45.4219C185.527 45.5928 185.544 45.7979 185.564 46.0371C185.588 46.2715 185.608 46.457 185.623 46.5938V47.2383C185.637 47.3164 185.681 47.4263 185.754 47.5679C185.833 47.7095 185.881 47.8145 185.901 47.8828C185.901 47.9805 185.881 48.0293 185.842 48.0293ZM179.69 40.0898C179.69 40.3828 179.692 40.6001 179.697 40.7417C179.702 40.8833 179.729 41.0688 179.778 41.2983C179.827 41.5278 179.9 41.6914 179.998 41.7891C180.203 41.7891 180.396 41.7671 180.576 41.7231C180.762 41.6792 180.94 41.6084 181.111 41.5107C181.282 41.4131 181.416 41.269 181.514 41.0786C181.616 40.8833 181.667 40.6514 181.667 40.3828C181.667 40.2314 181.641 40.0996 181.587 39.9873C181.533 39.8701 181.455 39.7773 181.353 39.709C181.25 39.6406 181.147 39.5869 181.045 39.5479C180.947 39.5039 180.825 39.4746 180.679 39.46C180.537 39.4404 180.425 39.4282 180.342 39.4233C180.259 39.4185 180.159 39.416 180.042 39.416H179.866C179.792 39.4502 179.744 39.5186 179.719 39.6211C179.7 39.7236 179.69 39.8799 179.69 40.0898ZM185.74 39.2256C185.74 39.1377 185.745 39.0083 185.754 38.8374C185.764 38.6616 185.769 38.542 185.769 38.4785C185.769 38.4541 185.764 38.3662 185.754 38.2148C185.745 38.0635 185.74 37.9316 185.74 37.8193C185.74 37.3018 185.789 37.043 185.886 37.043C185.925 37.043 185.959 37.0479 185.989 37.0576C187.009 37.0576 188.521 37.0454 190.522 37.021C192.529 36.9966 194.031 36.9844 195.027 36.9844C195.276 36.9844 195.432 37.0063 195.496 37.0503C195.564 37.0942 195.598 37.1797 195.598 37.3066V37.5117C195.598 37.7656 195.601 38.1416 195.605 38.6396C195.61 39.1328 195.613 39.5088 195.613 39.7676C195.613 40.0215 195.544 40.1484 195.408 40.1484C195.134 40.1484 194.727 40.1436 194.185 40.1338C193.643 40.124 193.235 40.1191 192.961 40.1191V47.9707C192.927 48.1172 192.844 48.1953 192.712 48.2051C192.542 48.2051 192.292 48.2026 191.965 48.1978C191.638 48.1929 191.389 48.1904 191.218 48.1904C191.208 48.1904 191.199 48.1953 191.189 48.2051C190.974 48.2051 190.671 48.2026 190.281 48.1978C189.895 48.1929 189.607 48.1904 189.417 48.1904H188.977C188.879 48.2002 188.738 48.2051 188.552 48.2051L188.259 47.8535C188.259 47.1113 188.284 46.0078 188.333 44.543C188.381 43.0781 188.406 41.9746 188.406 41.2324C188.406 41.1982 188.403 41.1421 188.398 41.064C188.398 40.9858 188.398 40.9224 188.398 40.8735C188.398 40.8247 188.394 40.7637 188.384 40.6904C188.379 40.6172 188.367 40.5586 188.347 40.5146C188.333 40.4658 188.313 40.4194 188.289 40.3755C188.264 40.3267 188.23 40.2925 188.186 40.2729C188.147 40.2485 188.098 40.2363 188.04 40.2363H185.945C185.808 40.1973 185.74 39.8604 185.74 39.2256Z" fill="#E6DF9A"/>
<path d="M88.0322 24.457C87.8939 25.6777 87.5724 26.7601 87.0679 27.7041C86.5633 28.64 85.9163 29.4049 85.127 29.999C84.3376 30.585 83.4383 31.0285 82.4292 31.3296C81.4282 31.6307 80.3337 31.7812 79.1455 31.7812C78.0387 31.7812 77.0296 31.6592 76.1182 31.415C75.2067 31.179 74.4377 30.8617 73.811 30.4629C73.1844 30.0641 72.631 29.5799 72.1509 29.0103C71.6707 28.4325 71.2882 27.8424 71.0034 27.2402C70.7186 26.6299 70.4867 25.9666 70.3076 25.2505C70.1367 24.5262 70.0187 23.8548 69.9536 23.2363C69.8966 22.6097 69.8682 21.9587 69.8682 21.2832V20.209C69.9495 19.0208 70.2262 17.9548 70.6982 17.0107C71.1702 16.0586 71.744 15.2936 72.4194 14.7158C73.0949 14.1299 73.868 13.6457 74.7388 13.2632C75.6095 12.8726 76.4559 12.604 77.2778 12.4575C78.0998 12.3029 78.9176 12.2256 79.7314 12.2256C81.0417 12.2256 82.1973 12.3843 83.1982 12.7017C84.2074 13.0109 85.0293 13.4504 85.6641 14.02C86.2988 14.5897 86.7952 15.2448 87.1533 15.9854C87.5114 16.7178 87.7393 17.5397 87.8369 18.4512V19.623C87.8369 19.8835 86.9417 20.0137 85.1514 20.0137C84.7282 20.0137 84.1382 20.0055 83.3813 19.9893C82.6326 19.973 82.1403 19.9648 81.9043 19.9648C81.8636 19.9648 81.8026 19.9689 81.7212 19.9771C81.6398 19.9852 81.5788 19.9893 81.5381 19.9893C81.3265 19.9893 81.1637 19.9038 81.0498 19.7329C80.944 19.5539 80.8708 19.3382 80.8301 19.0859C80.7975 18.8337 80.7528 18.5814 80.6958 18.3291C80.647 18.0768 80.5371 17.8652 80.3662 17.6943C80.2035 17.5153 79.9756 17.4258 79.6826 17.4258C79.3896 17.4258 79.1333 17.4746 78.9136 17.5723C78.6938 17.6699 78.5189 17.8245 78.3887 18.0361C78.2585 18.2396 78.1486 18.4471 78.0591 18.6587C77.9777 18.8703 77.9167 19.147 77.876 19.4888C77.8434 19.8224 77.819 20.1073 77.8027 20.3433C77.7946 20.5711 77.7865 20.8804 77.7783 21.271C77.7702 21.6535 77.762 21.9342 77.7539 22.1133C77.7539 22.2109 77.7458 22.39 77.7295 22.6504C77.7132 22.9108 77.7051 23.1224 77.7051 23.2852C77.7051 25.3115 78.2422 26.3532 79.3164 26.4102C79.6094 26.4102 79.8494 26.3044 80.0366 26.0928C80.2238 25.8812 80.3499 25.6452 80.415 25.3848C80.4883 25.1243 80.5697 24.8517 80.6592 24.5669C80.7487 24.2739 80.8464 24.0745 80.9521 23.9688H87.5928C87.8613 23.9932 88.0078 24.1559 88.0322 24.457ZM88.667 21.8203V20.4775C88.7484 19.3382 88.9966 18.3006 89.4116 17.3647C89.8267 16.4207 90.3516 15.6273 90.9863 14.9844C91.6292 14.3415 92.3698 13.8003 93.208 13.3608C94.0462 12.9132 94.9211 12.5877 95.8325 12.3843C96.7521 12.1808 97.7002 12.0791 98.6768 12.0791C99.2139 12.0791 99.7713 12.1239 100.349 12.2134C100.935 12.3029 101.554 12.4453 102.205 12.6406C102.856 12.8359 103.478 13.1248 104.072 13.5073C104.674 13.8817 105.171 14.3252 105.562 14.8379C106.367 15.8226 106.949 16.8561 107.307 17.9385C107.673 19.0127 107.856 20.209 107.856 21.5273C107.881 24.278 107.279 26.4915 106.05 28.168L105.513 28.9004C105.041 29.5514 104.365 30.0967 103.486 30.5361C102.607 30.9674 101.729 31.2645 100.85 31.4272C99.9707 31.5981 99.0837 31.6836 98.1885 31.6836C97.1387 31.6836 96.1702 31.5778 95.2832 31.3662C94.3962 31.1546 93.6312 30.8698 92.9883 30.5117C92.3454 30.1536 91.7716 29.7183 91.2671 29.2056C90.7625 28.6929 90.3475 28.1517 90.022 27.582C89.7046 27.0124 89.4401 26.3939 89.2285 25.7266C89.0251 25.0592 88.8786 24.4082 88.7891 23.7734C88.7077 23.1387 88.667 22.4876 88.667 21.8203ZM98.3838 16.9863C98.0501 16.9863 97.749 17.0636 97.4805 17.2183C97.2201 17.3729 97.0044 17.5601 96.8335 17.7798C96.6707 17.9995 96.5283 18.2965 96.4062 18.6709C96.2842 19.0371 96.1947 19.3708 96.1377 19.6719C96.0807 19.9648 96.036 20.3392 96.0034 20.7949C95.9709 21.2425 95.9505 21.5924 95.9424 21.8447C95.9424 22.0889 95.9424 22.4062 95.9424 22.7969C95.9424 23.1712 95.9546 23.5293 95.979 23.8711C96.0116 24.2048 96.0726 24.5628 96.1621 24.9453C96.2598 25.3197 96.3818 25.6493 96.5283 25.9341C96.6829 26.2108 96.8905 26.4468 97.1509 26.6421C97.4194 26.8293 97.7246 26.931 98.0664 26.9473C98.4245 26.9473 98.7419 26.8903 99.0186 26.7764C99.2952 26.6543 99.5272 26.5037 99.7144 26.3247C99.9015 26.1375 100.06 25.8893 100.19 25.5801C100.321 25.2708 100.418 24.9738 100.483 24.689C100.557 24.4041 100.61 24.0501 100.642 23.627C100.683 23.2038 100.707 22.8416 100.715 22.5405C100.723 22.2313 100.728 21.8447 100.728 21.3809C100.728 21.0391 100.715 20.7217 100.691 20.4287C100.675 20.1357 100.642 19.8102 100.593 19.4521C100.544 19.0941 100.463 18.7808 100.349 18.5122C100.235 18.2355 100.097 17.9792 99.9341 17.7432C99.7713 17.499 99.5557 17.3118 99.2871 17.1816C99.0267 17.0514 98.7256 16.9863 98.3838 16.9863ZM127.095 24.457C126.956 25.6777 126.635 26.7601 126.13 27.7041C125.626 28.64 124.979 29.4049 124.189 29.999C123.4 30.585 122.501 31.0285 121.492 31.3296C120.491 31.6307 119.396 31.7812 118.208 31.7812C117.101 31.7812 116.092 31.6592 115.181 31.415C114.269 31.179 113.5 30.8617 112.874 30.4629C112.247 30.0641 111.694 29.5799 111.213 29.0103C110.733 28.4325 110.351 27.8424 110.066 27.2402C109.781 26.6299 109.549 25.9666 109.37 25.2505C109.199 24.5262 109.081 23.8548 109.016 23.2363C108.959 22.6097 108.931 21.9587 108.931 21.2832V20.209C109.012 19.0208 109.289 17.9548 109.761 17.0107C110.233 16.0586 110.806 15.2936 111.482 14.7158C112.157 14.1299 112.931 13.6457 113.801 13.2632C114.672 12.8726 115.518 12.604 116.34 12.4575C117.162 12.3029 117.98 12.2256 118.794 12.2256C120.104 12.2256 121.26 12.3843 122.261 12.7017C123.27 13.0109 124.092 13.4504 124.727 14.02C125.361 14.5897 125.858 15.2448 126.216 15.9854C126.574 16.7178 126.802 17.5397 126.899 18.4512V19.623C126.899 19.8835 126.004 20.0137 124.214 20.0137C123.791 20.0137 123.201 20.0055 122.444 19.9893C121.695 19.973 121.203 19.9648 120.967 19.9648C120.926 19.9648 120.865 19.9689 120.784 19.9771C120.702 19.9852 120.641 19.9893 120.601 19.9893C120.389 19.9893 120.226 19.9038 120.112 19.7329C120.007 19.5539 119.933 19.3382 119.893 19.0859C119.86 18.8337 119.815 18.5814 119.758 18.3291C119.709 18.0768 119.6 17.8652 119.429 17.6943C119.266 17.5153 119.038 17.4258 118.745 17.4258C118.452 17.4258 118.196 17.4746 117.976 17.5723C117.756 17.6699 117.581 17.8245 117.451 18.0361C117.321 18.2396 117.211 18.4471 117.122 18.6587C117.04 18.8703 116.979 19.147 116.938 19.4888C116.906 19.8224 116.882 20.1073 116.865 20.3433C116.857 20.5711 116.849 20.8804 116.841 21.271C116.833 21.6535 116.825 21.9342 116.816 22.1133C116.816 22.2109 116.808 22.39 116.792 22.6504C116.776 22.9108 116.768 23.1224 116.768 23.2852C116.768 25.3115 117.305 26.3532 118.379 26.4102C118.672 26.4102 118.912 26.3044 119.099 26.0928C119.286 25.8812 119.412 25.6452 119.478 25.3848C119.551 25.1243 119.632 24.8517 119.722 24.5669C119.811 24.2739 119.909 24.0745 120.015 23.9688H126.655C126.924 23.9932 127.07 24.1559 127.095 24.457ZM127.729 21.8203V20.4775C127.811 19.3382 128.059 18.3006 128.474 17.3647C128.889 16.4207 129.414 15.6273 130.049 14.9844C130.692 14.3415 131.432 13.8003 132.271 13.3608C133.109 12.9132 133.984 12.5877 134.895 12.3843C135.815 12.1808 136.763 12.0791 137.739 12.0791C138.276 12.0791 138.834 12.1239 139.412 12.2134C139.998 12.3029 140.616 12.4453 141.267 12.6406C141.918 12.8359 142.541 13.1248 143.135 13.5073C143.737 13.8817 144.233 14.3252 144.624 14.8379C145.43 15.8226 146.012 16.8561 146.37 17.9385C146.736 19.0127 146.919 20.209 146.919 21.5273C146.943 24.278 146.341 26.4915 145.112 28.168L144.575 28.9004C144.103 29.5514 143.428 30.0967 142.549 30.5361C141.67 30.9674 140.791 31.2645 139.912 31.4272C139.033 31.5981 138.146 31.6836 137.251 31.6836C136.201 31.6836 135.233 31.5778 134.346 31.3662C133.459 31.1546 132.694 30.8698 132.051 30.5117C131.408 30.1536 130.834 29.7183 130.33 29.2056C129.825 28.6929 129.41 28.1517 129.084 27.582C128.767 27.0124 128.503 26.3939 128.291 25.7266C128.088 25.0592 127.941 24.4082 127.852 23.7734C127.77 23.1387 127.729 22.4876 127.729 21.8203ZM137.446 16.9863C137.113 16.9863 136.812 17.0636 136.543 17.2183C136.283 17.3729 136.067 17.5601 135.896 17.7798C135.733 17.9995 135.591 18.2965 135.469 18.6709C135.347 19.0371 135.257 19.3708 135.2 19.6719C135.143 19.9648 135.098 20.3392 135.066 20.7949C135.033 21.2425 135.013 21.5924 135.005 21.8447C135.005 22.0889 135.005 22.4062 135.005 22.7969C135.005 23.1712 135.017 23.5293 135.042 23.8711C135.074 24.2048 135.135 24.5628 135.225 24.9453C135.322 25.3197 135.444 25.6493 135.591 25.9341C135.745 26.2108 135.953 26.4468 136.213 26.6421C136.482 26.8293 136.787 26.931 137.129 26.9473C137.487 26.9473 137.804 26.8903 138.081 26.7764C138.358 26.6543 138.59 26.5037 138.777 26.3247C138.964 26.1375 139.123 25.8893 139.253 25.5801C139.383 25.2708 139.481 24.9738 139.546 24.689C139.619 24.4041 139.672 24.0501 139.705 23.627C139.745 23.2038 139.77 22.8416 139.778 22.5405C139.786 22.2313 139.79 21.8447 139.79 21.3809C139.79 21.0391 139.778 20.7217 139.753 20.4287C139.737 20.1357 139.705 19.8102 139.656 19.4521C139.607 19.0941 139.526 18.7808 139.412 18.5122C139.298 18.2355 139.159 17.9792 138.997 17.7432C138.834 17.499 138.618 17.3118 138.35 17.1816C138.089 17.0514 137.788 16.9863 137.446 16.9863ZM156.392 31.7324C155.431 31.6917 154.569 31.6063 153.804 31.4761C153.039 31.354 152.298 31.1546 151.582 30.8779C150.874 30.5931 150.276 30.2391 149.788 29.8159C149.307 29.3846 148.905 28.8353 148.579 28.168C148.262 27.5007 148.066 26.7275 147.993 25.8486C147.993 25.694 148.075 25.6045 148.237 25.5801C148.286 25.5964 148.368 25.6045 148.481 25.6045C149.157 25.6045 150.182 25.5882 151.558 25.5557C152.933 25.5231 153.958 25.5068 154.634 25.5068C154.805 25.5068 154.939 25.5638 155.037 25.6777C155.134 25.7835 155.212 25.9178 155.269 26.0806C155.334 26.2352 155.407 26.3939 155.488 26.5566C155.578 26.7113 155.724 26.8455 155.928 26.9595C156.139 27.0653 156.408 27.1182 156.733 27.1182C157.132 27.1182 157.482 27.0083 157.783 26.7886C158.092 26.5607 158.247 26.2555 158.247 25.873C158.247 25.6208 158.117 25.3888 157.856 25.1772C157.596 24.9657 157.25 24.7948 156.819 24.6646C156.396 24.5262 155.989 24.4123 155.598 24.3228C155.216 24.2251 154.821 24.1437 154.414 24.0786C154.007 24.0054 153.771 23.9606 153.706 23.9443C151.729 23.4072 150.304 22.7399 149.434 21.9424C148.571 21.1449 148.14 20.0544 148.14 18.6709C148.14 17.6943 148.319 16.8195 148.677 16.0464C149.035 15.2651 149.503 14.6304 150.081 14.1421C150.658 13.6457 151.342 13.2347 152.131 12.9092C152.921 12.5755 153.718 12.3436 154.524 12.2134C155.33 12.075 156.164 12.0059 157.026 12.0059C159.313 12.0059 161.136 12.429 162.495 13.2754C162.992 13.7718 163.354 14.1502 163.582 14.4106C163.818 14.6629 164.041 14.96 164.253 15.3018C164.473 15.6436 164.623 15.9813 164.705 16.3149C164.794 16.6405 164.855 17.0433 164.888 17.5234L164.448 17.9629C162.78 18.028 160.908 18.0605 158.833 18.0605C158.573 18.0605 158.361 18.0321 158.198 17.9751C158.044 17.9181 157.938 17.8449 157.881 17.7554C157.832 17.6659 157.779 17.5723 157.722 17.4746C157.673 17.377 157.625 17.2834 157.576 17.1938C157.535 17.1043 157.441 17.0311 157.295 16.9741C157.157 16.9172 156.969 16.8887 156.733 16.8887C156.668 16.8887 156.562 16.9009 156.416 16.9253C156.278 16.9497 156.111 16.9904 155.916 17.0474C155.728 17.0962 155.566 17.1776 155.427 17.2915C155.289 17.3973 155.22 17.5234 155.22 17.6699C155.22 17.849 155.309 18.0117 155.488 18.1582C155.675 18.3047 155.871 18.4105 156.074 18.4756C156.278 18.5407 156.53 18.6139 156.831 18.6953C157.132 18.7686 157.319 18.8174 157.393 18.8418C159.167 19.2894 160.225 19.5661 160.566 19.6719C162.349 20.2334 163.61 20.9699 164.351 21.8813C165.034 22.7277 165.376 23.7897 165.376 25.0674C165.376 25.8405 165.274 26.5444 165.071 27.1792C164.875 27.814 164.615 28.3511 164.29 28.7905C163.964 29.23 163.557 29.6206 163.069 29.9624C162.581 30.3042 162.084 30.5768 161.58 30.7803C161.083 30.9837 160.518 31.1546 159.883 31.293C159.248 31.4313 158.662 31.529 158.125 31.5859C157.596 31.651 157.018 31.6999 156.392 31.7324Z" fill="#E6DF9A"/>
<defs>
<linearGradient id="paint0_linear_1_128" x1="0.36364" y1="0.363636" x2="0.36364" y2="57.6364" gradientUnits="userSpaceOnUse">
<stop stop-color="#8B263E"/>
<stop offset="0.4" stop-color="#D3524A"/>
<stop offset="0.75" stop-color="#E27D50"/>
<stop offset="1" stop-color="#F4C463"/>
</linearGradient>
<linearGradient id="paint1_linear_1_128" x1="17.5455" y1="37.9091" x2="17.5455" y2="38.5455" gradientUnits="userSpaceOnUse">
<stop stop-color="#FFFDF0"/>
<stop offset="1" stop-color="#FFD54F"/>
</linearGradient>
<linearGradient id="paint2_linear_1_128" x1="20.0909" y1="39.5" x2="20.0909" y2="40.1364" gradientUnits="userSpaceOnUse">
<stop stop-color="#FFFDF0"/>
<stop offset="1" stop-color="#FFD54F"/>
</linearGradient>
<linearGradient id="paint3_linear_1_128" x1="23.2727" y1="41.0909" x2="23.2727" y2="41.6" gradientUnits="userSpaceOnUse">
<stop stop-color="#FFFDF0"/>
<stop offset="1" stop-color="#FFD54F"/>
</linearGradient>
<linearGradient id="paint4_linear_1_128" x1="22" y1="42.3636" x2="22" y2="42.8727" gradientUnits="userSpaceOnUse">
<stop stop-color="#FFFDF0"/>
<stop offset="1" stop-color="#FFD54F"/>
</linearGradient>
<linearGradient id="paint5_linear_1_128" x1="31.5455" y1="42.3636" x2="31.5455" y2="42.8727" gradientUnits="userSpaceOnUse">
<stop stop-color="#FFFDF0"/>
<stop offset="1" stop-color="#FFD54F"/>
</linearGradient>
<linearGradient id="paint6_linear_1_128" x1="25.1818" y1="43.6364" x2="25.1818" y2="44.0818" gradientUnits="userSpaceOnUse">
<stop stop-color="#FFFDF0"/>
<stop offset="1" stop-color="#FFD54F"/>
</linearGradient>
<linearGradient id="paint7_linear_1_128" x1="23.9091" y1="44.9091" x2="23.9091" y2="45.2909" gradientUnits="userSpaceOnUse">
<stop stop-color="#FFFDF0"/>
<stop offset="1" stop-color="#FFD54F"/>
</linearGradient>
<linearGradient id="paint8_linear_1_128" x1="29.6364" y1="44.9091" x2="29.6364" y2="45.2909" gradientUnits="userSpaceOnUse">
<stop stop-color="#FFFDF0"/>
<stop offset="1" stop-color="#FFD54F"/>
</linearGradient>
<linearGradient id="paint9_linear_1_128" x1="26.4545" y1="46.5" x2="26.4545" y2="46.8818" gradientUnits="userSpaceOnUse">
<stop stop-color="#FFFDF0"/>
<stop offset="1" stop-color="#FFD54F"/>
</linearGradient>
<linearGradient id="paint10_linear_1_128" x1="27.7273" y1="48.0909" x2="27.7273" y2="48.4091" gradientUnits="userSpaceOnUse">
<stop stop-color="#FFFDF0"/>
<stop offset="1" stop-color="#FFD54F"/>
</linearGradient>
<linearGradient id="paint11_linear_1_128" x1="16.2727" y1="24.5455" x2="16.2727" y2="37.2727" gradientUnits="userSpaceOnUse">
<stop stop-color="#FFFDF0"/>
<stop offset="1" stop-color="#FFD54F"/>
</linearGradient>
</defs>
</svg>
